<?xml version="1.0" encoding="UTF-8" standalone="no"?>
<!-- Created with Inkscape (http://www.inkscape.org/) -->

<svg
   xmlns:dc="http://purl.org/dc/elements/1.1/"
   xmlns:cc="http://creativecommons.org/ns#"
   xmlns:rdf="http://www.w3.org/1999/02/22-rdf-syntax-ns#"
   xmlns:svg="http://www.w3.org/2000/svg"
   xmlns="http://www.w3.org/2000/svg"
   xmlns:sodipodi="http://sodipodi.sourceforge.net/DTD/sodipodi-0.dtd"
   xmlns:inkscape="http://www.inkscape.org/namespaces/inkscape"
   width="634.55261"
   height="618.69049"
   id="svg2"
   version="1.1"
   inkscape:version="0.48.1 r9760"
   sodipodi:docname="bulb.svg"
   inkscape:export-filename="/home/jori/slightsynclogo.png"
   inkscape:export-xdpi="245.91"
   inkscape:export-ydpi="245.91">
  <defs
     id="defs4" />
  <sodipodi:namedview
     id="base"
     pagecolor="#ffffff"
     bordercolor="#666666"
     borderopacity="1.0"
     inkscape:pageopacity="0.0"
     inkscape:pageshadow="2"
     inkscape:zoom="0.49497475"
     inkscape:cx="434.44773"
     inkscape:cy="492.711"
     inkscape:document-units="px"
     inkscape:current-layer="layer1"
     showgrid="false"
     inkscape:window-width="1228"
     inkscape:window-height="1003"
     inkscape:window-x="48"
     inkscape:window-y="-4"
     inkscape:window-maximized="1"
     fit-margin-top="0"
     fit-margin-left="0"
     fit-margin-right="0"
     fit-margin-bottom="0" />
  <metadata
     id="metadata7">
    <rdf:RDF>
      <cc:Work
         rdf:about="">
        <dc:format>image/svg+xml</dc:format>
        <dc:type
           rdf:resource="http://purl.org/dc/dcmitype/StillImage" />
        <dc:title />
      </cc:Work>
    </rdf:RDF>
  </metadata>
  <g
     inkscape:label="Layer 1"
     inkscape:groupmode="layer"
     id="layer1"
     transform="translate(-82.875,-300.12201)">
    <path
       sodipodi:type="arc"
       style="fill:#ffff00;fill-opacity:1;stroke:#000000;stroke-width:7.4000001;stroke-miterlimit:4;stroke-opacity:1;stroke-dasharray:none"
       id="path2985"
       sodipodi:cx="431.42856"
       sodipodi:cy="295.21933"
       sodipodi:rx="40"
       sodipodi:ry="40"
       d="m 471.42856,295.21933 c 0,22.09139 -17.90861,40 -40,40 -22.09139,0 -40,-17.90861 -40,-40 0,-22.09139 17.90861,-40 40,-40 22.09139,0 40,17.90861 40,40 z"
       transform="matrix(4.6612777,0,0,4.6612777,-1618.4013,-762.32196)" />
    <path
       transform="matrix(4.4531851,0,0,4.4531851,-1540.2771,-695.89492)"
       sodipodi:type="arc"
       style="fill:#ffff00;fill-opacity:1;stroke:#000000;stroke-width:0;stroke-miterlimit:4;stroke-opacity:1;stroke-dasharray:none"
       id="path2985-6"
       sodipodi:cx="431.42856"
       sodipodi:cy="295.21933"
       sodipodi:rx="40"
       sodipodi:ry="40"
       d="m 471.42856,295.21933 c 0,22.09139 -17.90861,40 -40,40 -22.09139,0 -40,-17.90861 -40,-40 0,-22.09139 17.90861,-40 40,-40 22.09139,0 40,17.90861 40,40 z" />
    <path
       style="fill:none;stroke:#000000;stroke-width:34.49345779;stroke-linecap:butt;stroke-linejoin:miter;stroke-miterlimit:4;stroke-opacity:1;stroke-dasharray:none"
       d="m 174.52586,715.32659 c 12.66167,51.65784 58.13203,104.39075 113.20266,113.20236"
       id="path3773"
       inkscape:connector-curvature="0"
       sodipodi:nodetypes="cc" />
    <path
       style="fill:none;stroke:#000000;stroke-width:34.49345779;stroke-linecap:butt;stroke-linejoin:miter;stroke-miterlimit:4;stroke-opacity:1;stroke-dasharray:none"
       d="m 137.90165,751.95074 c 12.66138,51.65785 58.13204,104.39075 113.2024,113.20271"
       id="path3773-9"
       inkscape:connector-curvature="0"
       sodipodi:nodetypes="cc" />
    <path
       style="fill:none;stroke:#000000;stroke-width:34.49345779;stroke-linecap:butt;stroke-linejoin:miter;stroke-miterlimit:4;stroke-opacity:1;stroke-dasharray:none"
       d="M 99.612433,788.57525 C 112.27411,840.2328 157.74444,892.96601 212.8148,901.77761"
       id="path3773-6"
       inkscape:connector-curvature="0"
       sodipodi:nodetypes="cc" />
    <path
       sodipodi:type="arc"
       style="fill:#000000;fill-opacity:1;stroke:none"
       id="path3800"
       sodipodi:cx="302.67856"
       sodipodi:cy="248.61218"
       sodipodi:rx="2.3214285"
       sodipodi:ry="2.3214285"
       d="m 304.99999,248.61218 c 0,1.28209 -1.03934,2.32143 -2.32143,2.32143 -1.28209,0 -2.32143,-1.03934 -2.32143,-2.32143 0,-1.28209 1.03934,-2.32143 2.32143,-2.32143 1.28209,0 2.32143,1.03934 2.32143,2.32143 z"
       transform="matrix(8.246876,0,0,8.246876,-2389.0486,-1160.9819)" />
    <path
       style="fill:none;stroke:#b6acc4;stroke-width:20.08808517;stroke-linecap:butt;stroke-linejoin:miter;stroke-miterlimit:4;stroke-opacity:1;stroke-dasharray:none"
       d="m 233.30786,718.65604 c 46.82297,-38.52588 50.9769,-80.14838 73.56505,-120.69381 18.32606,37.1536 53.55507,69.10632 100.71687,97.38739 -37.12467,10.04645 -60.94858,12.64891 -112.37005,76.57817"
       id="path3814"
       inkscape:connector-curvature="0"
       sodipodi:nodetypes="cccc" />
    <path
       style="fill:none;stroke:#000000;stroke-width:15.3822155;stroke-linecap:round;stroke-linejoin:miter;stroke-miterlimit:4;stroke-opacity:1;stroke-dasharray:none"
       d="m 144.56068,405.68434 63.26018,51.60724"
       id="path3856"
       inkscape:connector-curvature="0" />
    <path
       style="fill:none;stroke:#000000;stroke-width:15.3822155;stroke-linecap:round;stroke-linejoin:miter;stroke-miterlimit:4;stroke-opacity:1;stroke-dasharray:none"
       d="m 628.16602,578.76833 81.57643,-3.23076"
       id="path3856-6"
       inkscape:connector-curvature="0" />
    <path
       style="fill:none;stroke:#000000;stroke-width:15.3822155;stroke-linecap:round;stroke-linejoin:miter;stroke-miterlimit:4;stroke-opacity:1;stroke-dasharray:none"
       d="m 312.3656,307.92513 20.64445,78.98688"
       id="path3856-8"
       inkscape:connector-curvature="0" />
    <path
       style="fill:none;stroke:#000000;stroke-width:15.3822155;stroke-linecap:round;stroke-linejoin:miter;stroke-miterlimit:4;stroke-opacity:1;stroke-dasharray:none"
       d="m 585.71721,744.45956 63.26018,51.6069"
       id="path3856-7"
       inkscape:connector-curvature="0" />
    <path
       style="fill:none;stroke:#000000;stroke-width:15.3822155;stroke-linecap:round;stroke-linejoin:miter;stroke-miterlimit:4;stroke-opacity:1;stroke-dasharray:none"
       d="m 570.01981,340.67149 -41.8539,70.09536"
       id="path3856-6-9"
       inkscape:connector-curvature="0" />
  </g>
</svg>
