<?xml version="1.0" encoding="UTF-8" standalone="no"?>
<!-- Created with Inkscape (http://www.inkscape.org/) -->

<svg
   xmlns:dc="http://purl.org/dc/elements/1.1/"
   xmlns:cc="http://creativecommons.org/ns#"
   xmlns:rdf="http://www.w3.org/1999/02/22-rdf-syntax-ns#"
   xmlns:svg="http://www.w3.org/2000/svg"
   xmlns="http://www.w3.org/2000/svg"
   xmlns:sodipodi="http://sodipodi.sourceforge.net/DTD/sodipodi-0.dtd"
   xmlns:inkscape="http://www.inkscape.org/namespaces/inkscape"
   width="480.65234"
   height="264.6268"
   id="svg2"
   version="1.1"
   inkscape:version="0.48.1 r9760"
   sodipodi:docname="failed.svg"
   inkscape:export-filename="/home/jori/projects/slider-hg/slightsync/img/failed.png"
   inkscape:export-xdpi="383.48001"
   inkscape:export-ydpi="383.48001">
  <defs
     id="defs4" />
  <sodipodi:namedview
     id="base"
     pagecolor="#ffffff"
     bordercolor="#666666"
     borderopacity="1.0"
     inkscape:pageopacity="0.0"
     inkscape:pageshadow="2"
     inkscape:zoom="0.70000001"
     inkscape:cx="488.95488"
     inkscape:cy="-26.270614"
     inkscape:document-units="px"
     inkscape:current-layer="layer1"
     showgrid="false"
     inkscape:window-width="1228"
     inkscape:window-height="1003"
     inkscape:window-x="48"
     inkscape:window-y="-4"
     inkscape:window-maximized="1"
     fit-margin-top="0"
     fit-margin-left="0"
     fit-margin-right="0"
     fit-margin-bottom="0"
     showguides="true"
     inkscape:guide-bbox="true" />
  <metadata
     id="metadata7">
    <rdf:RDF>
      <cc:Work
         rdf:about="">
        <dc:format>image/svg+xml</dc:format>
        <dc:type
           rdf:resource="http://purl.org/dc/dcmitype/StillImage" />
        <dc:title></dc:title>
      </cc:Work>
    </rdf:RDF>
  </metadata>
  <g
     inkscape:label="Layer 1"
     inkscape:groupmode="layer"
     id="layer1"
     transform="translate(-49.192272,70.855572)">
    <g
       transform="translate(15.244976,19.190308)"
       style="font-size:72px;font-style:normal;font-variant:normal;font-weight:bold;font-stretch:normal;text-align:center;line-height:81.99999928%;letter-spacing:0px;word-spacing:0px;text-anchor:middle;fill:#ffffff;fill-opacity:1;stroke:#000000;stroke-width:2;stroke-miterlimit:4;stroke-opacity:1;font-family:Liberation Sans;-inkscape-font-specification:Liberation Sans Bold"
       id="text2998">
      <path
         d="m 34.947296,158.3231 0,-49.53515 10.371094,0 0,41.51953 26.578125,0 0,8.01562 -36.949219,0"
         style=""
         id="path3808" />
      <path
         d="m 115.31448,139.26842 c -4e-5,2.90626 -0.41019,5.56642 -1.23047,7.98047 -0.79691,2.41407 -2.00394,4.5 -3.62109,6.25781 -1.61722,1.73438 -3.63284,3.09375 -6.04687,4.07812 -2.41409,0.96094 -5.226591,1.44141 -8.437504,1.44141 -3.093769,0 -5.824235,-0.48047 -8.191406,-1.44141 -2.367199,-0.96093 -4.359384,-2.30859 -5.976563,-4.04297 -1.593756,-1.73436 -2.800786,-3.80858 -3.621093,-6.22265 -0.820316,-2.43749 -1.230472,-5.12108 -1.230469,-8.05078 -3e-6,-2.83592 0.386715,-5.4492 1.160156,-7.83985 0.79687,-2.41403 1.992182,-4.49996 3.585938,-6.25781 1.59374,-1.75778 3.597645,-3.12887 6.011718,-4.11328 2.414047,-0.98434 5.238263,-1.47652 8.472657,-1.47656 3.421849,4e-5 6.339816,0.49222 8.753906,1.47656 2.41403,0.98441 4.38278,2.3555 5.90625,4.11328 1.54684,1.73441 2.67184,3.80862 3.375,6.22266 0.72652,2.39065 1.0898,5.01564 1.08984,7.875 m -10.33593,0 c -3e-5,-4.52342 -0.73832,-7.80466 -2.21485,-9.84375 -1.47659,-2.03903 -3.621116,-3.05856 -6.433591,-3.0586 -2.90627,4e-5 -5.13283,1.03128 -6.679688,3.09375 -1.546889,2.06253 -2.320326,5.33206 -2.320312,9.8086 -1.4e-5,2.27345 0.199205,4.23048 0.597656,5.87109 0.421861,1.64064 1.007798,2.98829 1.757812,4.04297 0.749984,1.0547 1.652327,1.83985 2.707032,2.35547 1.054668,0.49219 2.214823,0.73829 3.480468,0.73828 1.453102,1e-5 2.742163,-0.24609 3.867188,-0.73828 1.148415,-0.51562 2.109345,-1.30077 2.882815,-2.35547 0.77341,-1.05468 1.35934,-2.40233 1.75781,-4.04297 0.39841,-1.64061 0.59763,-3.59764 0.59766,-5.87109"
         style=""
         id="path3810" />
      <path
         d="m 131.97855,159.02623 c -1.82814,0 -3.46876,-0.24609 -4.92188,-0.73828 -1.42969,-0.51563 -2.64844,-1.25391 -3.65625,-2.21485 -1.00782,-0.98437 -1.78125,-2.1914 -2.32031,-3.62109 -0.53907,-1.42968 -0.8086,-3.05858 -0.8086,-4.88672 0,-2.24998 0.38672,-4.1367 1.16016,-5.66015 0.79687,-1.54686 1.875,-2.78905 3.23438,-3.72657 1.35936,-0.96091 2.95311,-1.65232 4.78125,-2.07422 1.82811,-0.44528 3.77342,-0.67966 5.83593,-0.70312 l 8.19141,-0.14063 0,-1.93359 c -3e-5,-1.38279 -0.12893,-2.53122 -0.38672,-3.44531 -0.2344,-0.93747 -0.58596,-1.69919 -1.05469,-2.28516 -0.46877,-0.5859 -1.05471,-0.99606 -1.75781,-1.23047 -0.67971,-0.25778 -1.46486,-0.38668 -2.35547,-0.38672 -0.82033,4e-5 -1.55861,0.0821 -2.21484,0.2461 -0.63283,0.16409 -1.18361,0.45706 -1.65235,0.8789 -0.46876,0.39847 -0.85548,0.94925 -1.16015,1.65235 -0.28127,0.67971 -0.48048,1.5469 -0.59766,2.60156 l -10.30078,-0.49219 c 0.28125,-1.66403 0.79687,-3.17575 1.54688,-4.53515 0.74999,-1.38278 1.78124,-2.57809 3.09375,-3.58594 1.33592,-1.00778 2.96483,-1.78121 4.88671,-2.32031 1.9453,-0.56246 4.21874,-0.84371 6.82032,-0.84375 2.36716,4e-5 4.47654,0.293 6.32812,0.8789 1.85154,0.58598 3.42185,1.46488 4.71094,2.63672 1.28903,1.14847 2.2734,2.56644 2.95312,4.25391 0.67966,1.68753 1.0195,3.64456 1.01954,5.87109 l 0,13.85156 c -4e-5,0.89064 0.0351,1.68751 0.10546,2.39063 0.0937,0.70313 0.24606,1.30079 0.45704,1.79297 0.23434,0.46876 0.55074,0.83204 0.94921,1.08984 0.42184,0.23438 0.9609,0.35157 1.61719,0.35156 0.74996,1e-5 1.47653,-0.0703 2.17969,-0.21093 l 0,5.34375 c -0.58598,0.14062 -1.11332,0.26953 -1.58203,0.38672 -0.46879,0.11718 -0.93754,0.21093 -1.40625,0.28125 -0.46879,0.0703 -0.97269,0.1289 -1.51172,0.17578 -0.51566,0.0469 -1.12503,0.0703 -1.82813,0.0703 -2.4844,0 -4.32424,-0.60937 -5.51953,-1.82813 -1.1719,-1.21874 -1.87502,-3.01171 -2.10937,-5.3789 l -0.21094,0 c -1.31252,2.36719 -3.00002,4.20703 -5.0625,5.51953 -2.03908,1.3125 -4.52345,1.96875 -7.45312,1.96875 m 11.49609,-18.31641 -5.0625,0.0703 c -1.05471,0.0469 -2.06252,0.14064 -3.02344,0.28125 -0.93751,0.1172 -1.76954,0.38673 -2.49609,0.80859 -0.70314,0.39845 -1.26564,0.98439 -1.6875,1.75781 -0.42189,0.77345 -0.63283,1.82814 -0.63281,3.16406 -2e-5,1.8047 0.41014,3.15236 1.23046,4.04297 0.84374,0.8672 1.95702,1.30079 3.33985,1.30078 1.26561,1e-5 2.41404,-0.26952 3.44531,-0.80859 1.03123,-0.53905 1.89842,-1.24218 2.60156,-2.10937 0.72654,-0.89062 1.28904,-1.91015 1.6875,-3.0586 0.39842,-1.14842 0.59763,-2.3203 0.59766,-3.51562 l 0,-1.9336"
         style=""
         id="path3812" />
      <path
         d="m 187.91214,158.3231 c -0.0469,-0.18749 -0.1055,-0.51562 -0.17578,-0.98437 -0.0469,-0.49219 -0.1055,-1.04297 -0.17578,-1.65234 -0.0469,-0.60938 -0.0938,-1.23047 -0.14063,-1.86329 -0.0235,-0.6328 -0.0352,-1.1953 -0.0351,-1.6875 l -0.14063,0 c -1.14846,2.46095 -2.75393,4.23048 -4.81641,5.3086 -2.03908,1.05469 -4.4883,1.58203 -7.34765,1.58203 -2.39064,0 -4.46486,-0.49219 -6.22266,-1.47656 -1.73438,-0.98438 -3.17579,-2.35547 -4.32422,-4.11328 -1.125,-1.75781 -1.96875,-3.83203 -2.53125,-6.22266 -0.53906,-2.41405 -0.80859,-5.03905 -0.80859,-7.875 0,-2.88279 0.28125,-5.53123 0.84375,-7.94531 0.58593,-2.41404 1.47656,-4.48825 2.67187,-6.22266 1.19531,-1.75778 2.70703,-3.12887 4.53516,-4.11328 1.85155,-0.98434 4.04295,-1.47652 6.57422,-1.47656 1.24217,4e-5 2.43748,0.12894 3.58594,0.38672 1.14841,0.25785 2.21482,0.65628 3.19922,1.19531 0.98435,0.5391 1.87497,1.2305 2.67187,2.07422 0.79685,0.84378 1.47654,1.86331 2.03906,3.05859 l 0.0703,0 c -3e-5,-0.23434 -0.0118,-0.57419 -0.0352,-1.01953 -3e-5,-0.46872 -3e-5,-0.99606 0,-1.58203 -3e-5,-0.5859 -0.0118,-1.19528 -0.0352,-1.82813 -3e-5,-0.63277 -3e-5,-1.24215 0,-1.82812 l 0,-13.88672 9.87891,0 0,43.875 c -4e-5,1.85157 0.0351,3.50391 0.10547,4.95703 0.0703,1.42969 0.12887,2.54297 0.17578,3.33984 l -9.5625,0 m -0.45703,-19.23046 c -3e-5,-2.50779 -0.23441,-4.58201 -0.70313,-6.22266 -0.46877,-1.66404 -1.08987,-2.97653 -1.86328,-3.9375 -0.75002,-0.98434 -1.61721,-1.66403 -2.60156,-2.03906 -0.96096,-0.39841 -1.94533,-0.59763 -2.95313,-0.59766 -1.26564,3e-5 -2.39064,0.24613 -3.375,0.73828 -0.96095,0.49222 -1.78126,1.26566 -2.46093,2.32031 -0.65627,1.05472 -1.16017,2.40238 -1.51172,4.04297 -0.32814,1.64065 -0.4922,3.62112 -0.49219,5.94141 -1e-5,8.62501 2.58983,12.93751 7.76953,12.9375 0.98436,1e-5 1.96873,-0.21093 2.95313,-0.63281 0.98435,-0.42187 1.86325,-1.13671 2.63672,-2.14453 0.77341,-1.00781 1.3945,-2.35546 1.86328,-4.04297 0.49216,-1.71093 0.73825,-3.83202 0.73828,-6.36328"
         style=""
         id="path3814" />
      <path
         d="m 207.28323,113.42857 0,-7.27734 9.87891,0 0,7.27734 -9.87891,0 m 0,44.89453 0,-38.03906 9.87891,0 0,38.03906 -9.87891,0"
         style=""
         id="path3816" />
      <path
         d="m 251.89651,158.3231 0,-21.33984 c -2e-5,-1.47654 -0.11721,-2.82419 -0.35156,-4.04297 -0.2344,-1.24216 -0.62112,-2.29684 -1.16015,-3.16406 -0.53909,-0.8906 -1.24222,-1.582 -2.10938,-2.07422 -0.86721,-0.49216 -1.9219,-0.73825 -3.16406,-0.73828 -1.19534,3e-5 -2.28518,0.26956 -3.26953,0.80859 -0.96096,0.51566 -1.79299,1.26566 -2.4961,2.25 -0.70314,0.96097 -1.25392,2.12112 -1.65234,3.48047 -0.37502,1.33596 -0.56252,2.81252 -0.5625,4.42969 l 0,20.39062 -9.87891,0 0,-29.53125 c 0,-0.82028 -0.0117,-1.66403 -0.0352,-2.53125 -10e-6,-0.86715 -0.0234,-1.68746 -0.0703,-2.46093 -0.0234,-0.79684 -0.0469,-1.49997 -0.0703,-2.10938 -0.0234,-0.63277 -0.0586,-1.10152 -0.10547,-1.40625 l 9.42188,0 c 0.0469,0.28129 0.0937,0.73832 0.14062,1.3711 0.0469,0.60941 0.0937,1.28909 0.14063,2.03906 0.0469,0.75003 0.082,1.50003 0.10547,2.25 0.0469,0.75003 0.0703,1.38284 0.0703,1.89844 l 0.14062,0 c 1.33593,-2.90622 3.01171,-5.01559 5.02735,-6.32813 2.0156,-1.31246 4.41794,-1.96871 7.20703,-1.96875 2.29685,4e-5 4.23044,0.37504 5.80078,1.125 1.59372,0.75004 2.88278,1.78129 3.86719,3.09375 1.00777,1.31253 1.73434,2.85941 2.17969,4.64063 0.44527,1.78127 0.66793,3.70315 0.66796,5.76562 l 0,24.15234 -9.84375,0"
         style=""
         id="path3818" />
      <path
         d="m 287.19339,173.58092 c -2.50783,-2e-5 -4.72267,-0.25783 -6.64453,-0.77344 -1.89845,-0.4922 -3.52736,-1.19533 -4.88672,-2.10938 -1.33595,-0.89063 -2.41407,-1.96876 -3.23438,-3.23437 -0.79688,-1.2422 -1.34766,-2.61329 -1.65234,-4.11328 l 9.87891,-1.16016 c 0.35155,1.52343 1.10154,2.71875 2.25,3.58594 1.17185,0.86718 2.69529,1.30077 4.57031,1.30078 1.17185,-1e-5 2.23826,-0.16407 3.19922,-0.49219 0.98435,-0.32813 1.81638,-0.89063 2.49609,-1.6875 0.7031,-0.77344 1.24216,-1.80469 1.61719,-3.09375 0.39841,-1.28906 0.59763,-2.88281 0.59766,-4.78125 -3e-5,-0.65624 -3e-5,-1.32421 0,-2.0039 -3e-5,-0.67969 0.0117,-1.30078 0.0351,-1.86328 0.0234,-0.65625 0.0351,-1.28906 0.0352,-1.89844 l -0.0703,0 c -1.14847,2.46094 -2.76566,4.24219 -4.85157,5.34375 -2.06252,1.10156 -4.52345,1.65234 -7.38281,1.65234 -2.41408,0 -4.50001,-0.46875 -6.25781,-1.40625 -1.73439,-0.96093 -3.17579,-2.28515 -4.32422,-3.97265 -1.14844,-1.71093 -2.00391,-3.73828 -2.56641,-6.08204 -0.53906,-2.36717 -0.80859,-4.96873 -0.80859,-7.80468 0,-2.92967 0.29297,-5.5781 0.87891,-7.94532 0.58593,-2.39059 1.47655,-4.44137 2.67187,-6.15234 1.21874,-1.7109 2.74218,-3.0234 4.57031,-3.9375 1.85155,-0.93746 4.04296,-1.40621 6.57422,-1.40625 2.53123,4e-5 4.79295,0.5391 6.78516,1.61719 2.0156,1.07816 3.58591,2.82425 4.71094,5.23828 l 0.17578,0 c -3e-5,-0.49216 0.0117,-1.05465 0.0351,-1.6875 0.0469,-0.65622 0.0937,-1.27731 0.14063,-1.86328 0.0468,-0.60934 0.0937,-1.1484 0.14062,-1.61719 0.0703,-0.46871 0.12888,-0.78512 0.17578,-0.94922 l 9.35157,0 c -0.0469,0.84379 -0.0938,2.02738 -0.14063,3.55078 -0.0469,1.52347 -0.0703,3.26957 -0.0703,5.23828 l 0,28.08985 c -4e-5,2.76562 -0.39848,5.16796 -1.19531,7.20703 -0.79691,2.06249 -1.96879,3.77343 -3.51563,5.13281 -1.52347,1.35936 -3.41018,2.3789 -5.66015,3.0586 -2.22659,0.67967 -4.76956,1.01951 -7.62891,1.01953 m 8.26172,-34.80469 c -3e-5,-2.3906 -0.23441,-4.38279 -0.70313,-5.97656 -0.46877,-1.59373 -1.07815,-2.87107 -1.82812,-3.83203 -0.75003,-0.96091 -1.61721,-1.6406 -2.60156,-2.03907 -0.96096,-0.3984 -1.93362,-0.59762 -2.91797,-0.59765 -1.26565,3e-5 -2.39065,0.24612 -3.375,0.73828 -0.96096,0.49222 -1.78127,1.25393 -2.46094,2.28515 -0.6797,1.03128 -1.19533,2.34378 -1.54688,3.9375 -0.35157,1.59378 -0.52735,3.49221 -0.52734,5.69532 -10e-6,4.10158 0.65624,7.19532 1.96875,9.28125 1.31248,2.08594 3.26951,3.12891 5.87109,3.1289 0.98436,1e-5 1.95701,-0.18749 2.91797,-0.5625 0.98435,-0.39843 1.86326,-1.07811 2.63672,-2.03906 0.77341,-0.98436 1.39451,-2.28514 1.86328,-3.90234 0.46872,-1.61718 0.7031,-3.65624 0.70313,-6.11719"
         style=""
         id="path3820" />
      <path
         d="m 346.85355,126.96373 0,31.35937 -9.84375,0 0,-31.35937 -5.55469,0 0,-6.67969 5.55469,0 0,-3.97265 c -10e-6,-1.45309 0.17577,-2.78902 0.52734,-4.00782 0.35155,-1.24214 0.94921,-2.32026 1.79297,-3.23437 0.84374,-0.91401 1.98046,-1.62886 3.41015,-2.14453 1.42968,-0.51558 3.21093,-0.77339 5.34375,-0.77344 1.12499,5e-5 2.22655,0.0587 3.30469,0.17578 1.10154,0.11724 2.08592,0.24615 2.95313,0.38672 l 0,6.36328 c -0.4219,-0.0937 -0.90237,-0.16402 -1.44141,-0.21094 -0.51565,-0.0703 -0.99611,-0.10542 -1.44141,-0.10547 -0.91408,5e-5 -1.6758,0.0938 -2.28515,0.28125 -0.58596,0.18755 -1.05471,0.4688 -1.40625,0.84375 -0.32814,0.37505 -0.56252,0.85552 -0.70313,1.44141 -0.14064,0.56254 -0.21095,1.21879 -0.21093,1.96875 l 0,2.98828 7.48828,0 0,6.67969 -7.48828,0"
         style=""
         id="path3822" />
      <path
         d="m 368.08792,159.02623 c -1.82814,0 -3.46876,-0.24609 -4.92187,-0.73828 -1.4297,-0.51563 -2.64845,-1.25391 -3.65625,-2.21485 -1.00782,-0.98437 -1.78126,-2.1914 -2.32032,-3.62109 -0.53906,-1.42968 -0.80859,-3.05858 -0.80859,-4.88672 0,-2.24998 0.38672,-4.1367 1.16016,-5.66015 0.79687,-1.54686 1.87499,-2.78905 3.23437,-3.72657 1.35937,-0.96091 2.95312,-1.65232 4.78125,-2.07422 1.82811,-0.44528 3.77342,-0.67966 5.83594,-0.70312 l 8.1914,-0.14063 0,-1.93359 c -2e-5,-1.38279 -0.12893,-2.53122 -0.38671,-3.44531 -0.2344,-0.93747 -0.58597,-1.69919 -1.05469,-2.28516 -0.46877,-0.5859 -1.05471,-0.99606 -1.75781,-1.23047 -0.67971,-0.25778 -1.46487,-0.38668 -2.35547,-0.38672 -0.82033,4e-5 -1.55861,0.0821 -2.21485,0.2461 -0.63283,0.16409 -1.18361,0.45706 -1.65234,0.8789 -0.46877,0.39847 -0.85548,0.94925 -1.16016,1.65235 -0.28126,0.67971 -0.48048,1.5469 -0.59765,2.60156 l -10.30078,-0.49219 c 0.28124,-1.66403 0.79687,-3.17575 1.54687,-4.53515 0.75,-1.38278 1.78124,-2.57809 3.09375,-3.58594 1.33593,-1.00778 2.96483,-1.78121 4.88672,-2.32031 1.9453,-0.56246 4.21873,-0.84371 6.82031,-0.84375 2.36717,4e-5 4.47654,0.293 6.32813,0.8789 1.85153,0.58598 3.42184,1.46488 4.71093,2.63672 1.28903,1.14847 2.27341,2.56644 2.95313,4.25391 0.67965,1.68753 1.0195,3.64456 1.01953,5.87109 l 0,13.85156 c -3e-5,0.89064 0.0351,1.68751 0.10547,2.39063 0.0937,0.70313 0.24606,1.30079 0.45703,1.79297 0.23434,0.46876 0.55075,0.83204 0.94922,1.08984 0.42184,0.23438 0.9609,0.35157 1.61719,0.35156 0.74996,1e-5 1.47652,-0.0703 2.17968,-0.21093 l 0,5.34375 c -0.58597,0.14062 -1.11332,0.26953 -1.58203,0.38672 -0.46878,0.11718 -0.93753,0.21093 -1.40625,0.28125 -0.46878,0.0703 -0.97269,0.1289 -1.51172,0.17578 -0.51566,0.0469 -1.12503,0.0703 -1.82812,0.0703 -2.48441,0 -4.32425,-0.60937 -5.51953,-1.82813 -1.1719,-1.21874 -1.87503,-3.01171 -2.10938,-5.3789 l -0.21093,0 c -1.31253,2.36719 -3.00003,4.20703 -5.0625,5.51953 -2.03909,1.3125 -4.52346,1.96875 -7.45313,1.96875 m 11.49609,-18.31641 -5.0625,0.0703 c -1.0547,0.0469 -2.06251,0.14064 -3.02343,0.28125 -0.93752,0.1172 -1.76955,0.38673 -2.4961,0.80859 -0.70314,0.39845 -1.26563,0.98439 -1.6875,1.75781 -0.42188,0.77345 -0.63282,1.82814 -0.63281,3.16406 -10e-6,1.8047 0.41014,3.15236 1.23047,4.04297 0.84374,0.8672 1.95702,1.30079 3.33984,1.30078 1.26561,1e-5 2.41405,-0.26952 3.44532,-0.80859 1.03122,-0.53905 1.89841,-1.24218 2.60156,-2.10937 0.72654,-0.89062 1.28904,-1.91015 1.6875,-3.0586 0.39841,-1.14842 0.59763,-2.3203 0.59765,-3.51562 l 0,-1.9336"
         style=""
         id="path3824" />
      <path
         d="m 399.37698,113.42857 0,-7.27734 9.87891,0 0,7.27734 -9.87891,0 m 0,44.89453 0,-38.03906 9.87891,0 0,38.03906 -9.87891,0"
         style=""
         id="path3826" />
      <path
         d="m 419.34573,158.3231 0,-52.17187 9.87891,0 0,52.17187 -9.87891,0"
         style=""
         id="path3828" />
      <path
         d="m 454.8887,159.02623 c -2.7422,0 -5.21486,-0.39844 -7.41797,-1.19531 -2.17969,-0.82031 -4.04297,-2.05078 -5.58984,-3.69141 -1.54688,-1.66406 -2.73047,-3.73827 -3.55078,-6.22266 -0.82032,-2.50779 -1.23047,-5.43748 -1.23047,-8.78906 0,-3.63279 0.48047,-6.69138 1.44141,-9.17578 0.98437,-2.48434 2.29686,-4.48825 3.9375,-6.01172 1.66405,-1.54684 3.5742,-2.66012 5.73046,-3.33984 2.15624,-0.67965 4.42967,-1.01949 6.82032,-1.01953 2.99997,4e-5 5.55466,0.52738 7.66406,1.58203 2.13278,1.03128 3.87887,2.48441 5.23828,4.35937 1.35934,1.87503 2.35543,4.12503 2.98828,6.75 0.63278,2.60159 0.94918,5.4844 0.94922,8.64844 l 0,0.28125 -24.39844,0 c -1e-5,1.59377 0.14062,3.08205 0.42188,4.46484 0.28123,1.35939 0.73827,2.54298 1.37109,3.55079 0.6328,0.98438 1.45311,1.76953 2.46094,2.35546 1.00779,0.56251 2.22654,0.84376 3.65625,0.84375 1.73435,1e-5 3.15232,-0.36327 4.25391,-1.08984 1.10153,-0.74999 1.88669,-1.89843 2.35546,-3.44531 l 9.31641,0.80859 c -0.42191,1.07814 -1.01957,2.22657 -1.79297,3.44531 -0.75003,1.21876 -1.75784,2.34376 -3.02344,3.375 -1.26565,1.00782 -2.84768,1.85157 -4.74609,2.53125 -1.87502,0.65625 -4.16018,0.98438 -6.85547,0.98438 m 0,-33.22266 c -1.00783,4e-5 -1.95705,0.17582 -2.84765,0.52735 -0.86721,0.32815 -1.62893,0.86722 -2.28516,1.61718 -0.63283,0.7266 -1.14845,1.67581 -1.54688,2.84766 -0.39845,1.1719 -0.6211,2.57815 -0.66796,4.21875 l 14.76562,0 c -0.18753,-3.07029 -0.92581,-5.36716 -2.21484,-6.89062 -1.28909,-1.54685 -3.02346,-2.32028 -5.20313,-2.32032"
         style=""
         id="path3830" />
      <path
         d="m 504.03714,158.3231 c -0.0469,-0.18749 -0.1055,-0.51562 -0.17578,-0.98437 -0.0469,-0.49219 -0.1055,-1.04297 -0.17578,-1.65234 -0.0469,-0.60938 -0.0938,-1.23047 -0.14063,-1.86329 -0.0235,-0.6328 -0.0352,-1.1953 -0.0351,-1.6875 l -0.14063,0 c -1.14846,2.46095 -2.75393,4.23048 -4.81641,5.3086 -2.03908,1.05469 -4.4883,1.58203 -7.34765,1.58203 -2.39064,0 -4.46486,-0.49219 -6.22266,-1.47656 -1.73438,-0.98438 -3.17579,-2.35547 -4.32422,-4.11328 -1.125,-1.75781 -1.96875,-3.83203 -2.53125,-6.22266 -0.53906,-2.41405 -0.80859,-5.03905 -0.80859,-7.875 0,-2.88279 0.28125,-5.53123 0.84375,-7.94531 0.58593,-2.41404 1.47656,-4.48825 2.67187,-6.22266 1.19531,-1.75778 2.70703,-3.12887 4.53516,-4.11328 1.85155,-0.98434 4.04295,-1.47652 6.57422,-1.47656 1.24217,4e-5 2.43748,0.12894 3.58594,0.38672 1.14841,0.25785 2.21482,0.65628 3.19922,1.19531 0.98435,0.5391 1.87497,1.2305 2.67187,2.07422 0.79685,0.84378 1.47654,1.86331 2.03906,3.05859 l 0.0703,0 c -3e-5,-0.23434 -0.0118,-0.57419 -0.0352,-1.01953 -3e-5,-0.46872 -3e-5,-0.99606 0,-1.58203 -3e-5,-0.5859 -0.0118,-1.19528 -0.0352,-1.82813 -3e-5,-0.63277 -3e-5,-1.24215 0,-1.82812 l 0,-13.88672 9.87891,0 0,43.875 c -4e-5,1.85157 0.0351,3.50391 0.10547,4.95703 0.0703,1.42969 0.12887,2.54297 0.17578,3.33984 l -9.5625,0 m -0.45703,-19.23046 c -3e-5,-2.50779 -0.23441,-4.58201 -0.70313,-6.22266 -0.46877,-1.66404 -1.08987,-2.97653 -1.86328,-3.9375 -0.75002,-0.98434 -1.61721,-1.66403 -2.60156,-2.03906 -0.96096,-0.39841 -1.94533,-0.59763 -2.95313,-0.59766 -1.26564,3e-5 -2.39064,0.24613 -3.375,0.73828 -0.96095,0.49222 -1.78126,1.26566 -2.46093,2.32031 -0.65627,1.05472 -1.16017,2.40238 -1.51172,4.04297 -0.32814,1.64065 -0.4922,3.62112 -0.49219,5.94141 -10e-6,8.62501 2.58983,12.93751 7.76953,12.9375 0.98436,1e-5 1.96873,-0.21093 2.95313,-0.63281 0.98435,-0.42187 1.86325,-1.13671 2.63672,-2.14453 0.77341,-1.00781 1.3945,-2.35546 1.86328,-4.04297 0.49216,-1.71093 0.73825,-3.83202 0.73828,-6.36328"
         style=""
         id="path3832" />
    </g>
    <text
       xml:space="preserve"
       style="font-size:72px;font-style:normal;font-variant:normal;font-weight:normal;font-stretch:normal;line-height:125%;letter-spacing:0px;word-spacing:0px;fill:#000000;fill-opacity:1;stroke:none;font-family:Liberation Sans;-inkscape-font-specification:Liberation Sans"
       x="152.53304"
       y="-82.093193"
       id="text3782"
       sodipodi:linespacing="125%"
       transform="translate(15.244976,19.190308)"><tspan
         sodipodi:role="line"
         id="tspan3784"
         x="152.53304"
         y="-82.093193"></tspan></text>
    <text
       xml:space="preserve"
       style="font-size:144px;font-style:normal;font-variant:normal;font-weight:bold;font-stretch:normal;text-align:center;line-height:81.99999928%;letter-spacing:0px;word-spacing:0px;text-anchor:middle;fill:#ffffff;fill-opacity:1;stroke:#000000;stroke-width:2;stroke-miterlimit:4;stroke-opacity:1;stroke-dasharray:none;font-family:Liberation Sans;-inkscape-font-specification:Liberation Sans Bold"
       x="282.73328"
       y="34.488178"
       id="text2998-9"
       sodipodi:linespacing="81.999999%"><tspan
         sodipodi:role="line"
         x="282.73328"
         y="34.488178"
         id="tspan3008-0">:-(</tspan></text>
  </g>
</svg>
