<?xml version="1.0" encoding="UTF-8" standalone="no"?>
<!-- Created with Inkscape (http://www.inkscape.org/) -->

<svg
   xmlns:dc="http://purl.org/dc/elements/1.1/"
   xmlns:cc="http://creativecommons.org/ns#"
   xmlns:rdf="http://www.w3.org/1999/02/22-rdf-syntax-ns#"
   xmlns:svg="http://www.w3.org/2000/svg"
   xmlns="http://www.w3.org/2000/svg"
   xmlns:sodipodi="http://sodipodi.sourceforge.net/DTD/sodipodi-0.dtd"
   xmlns:inkscape="http://www.inkscape.org/namespaces/inkscape"
   width="560.38672"
   height="69.429688"
   id="svg2"
   version="1.1"
   inkscape:version="0.48.1 r9760"
   sodipodi:docname="loading.svg">
  <defs
     id="defs4" />
  <sodipodi:namedview
     id="base"
     pagecolor="#ffffff"
     bordercolor="#666666"
     borderopacity="1.0"
     inkscape:pageopacity="0.0"
     inkscape:pageshadow="2"
     inkscape:zoom="1.979899"
     inkscape:cx="280.99056"
     inkscape:cy="-52.873987"
     inkscape:document-units="px"
     inkscape:current-layer="layer1"
     showgrid="false"
     inkscape:window-width="1228"
     inkscape:window-height="1003"
     inkscape:window-x="48"
     inkscape:window-y="-4"
     inkscape:window-maximized="1"
     fit-margin-top="0"
     fit-margin-left="0"
     fit-margin-right="0"
     fit-margin-bottom="0"
     showguides="true"
     inkscape:guide-bbox="true" />
  <metadata
     id="metadata7">
    <rdf:RDF>
      <cc:Work
         rdf:about="">
        <dc:format>image/svg+xml</dc:format>
        <dc:type
           rdf:resource="http://purl.org/dc/dcmitype/StillImage" />
        <dc:title />
      </cc:Work>
    </rdf:RDF>
  </metadata>
  <g
     inkscape:label="Layer 1"
     inkscape:groupmode="layer"
     id="layer1"
     transform="translate(-15.244976,-19.190308)">
    <g
       style="font-size:72px;font-style:normal;font-variant:normal;font-weight:bold;font-stretch:normal;line-height:125%;letter-spacing:0px;word-spacing:0px;fill:#ffffff;fill-opacity:1;stroke:#000000;stroke-width:2;stroke-miterlimit:4;stroke-opacity:1;font-family:Liberation Sans;-inkscape-font-specification:Liberation Sans Bold"
       id="text2985">
      <path
         d="m 16.244976,72.362183 0,-49.535157 10.371094,0 0,41.519532 26.578125,0 0,8.015625 -36.949219,0"
         style=""
         id="path2985" />
      <path
         d="m 96.612164,53.307495 c -4.2e-5,2.906266 -0.410197,5.56642 -1.230469,7.980469 -0.796914,2.414071 -2.003944,4.500006 -3.621094,6.257812 -1.617222,1.734378 -3.632845,3.093752 -6.046875,4.078125 -2.41409,0.960938 -5.226587,1.441406 -8.4375,1.441407 -3.093769,-10e-7 -5.824235,-0.480469 -8.191406,-1.441407 -2.367199,-0.960935 -4.359384,-2.30859 -5.976563,-4.042968 -1.593756,-1.734369 -2.800786,-3.808586 -3.621093,-6.222657 -0.820316,-2.437486 -1.230472,-5.121077 -1.230469,-8.050781 -3e-6,-2.835915 0.386715,-5.449194 1.160156,-7.839844 0.79687,-2.414033 1.992182,-4.499968 3.585938,-6.257812 1.59374,-1.757778 3.597645,-3.12887 6.011718,-4.113281 2.414047,-0.984337 5.238263,-1.476524 8.472657,-1.476563 3.421849,3.9e-5 6.339815,0.492226 8.753906,1.476563 2.414029,0.984411 4.382777,2.355503 5.90625,4.113281 1.546837,1.734406 2.671835,3.808623 3.375,6.222656 0.726521,2.39065 1.089802,5.015647 1.089844,7.875 m -10.335938,0 c -3.1e-5,-4.523414 -0.738311,-7.804661 -2.214844,-9.84375 -1.476589,-2.039031 -3.621118,-3.058562 -6.433593,-3.058594 -2.90627,3.2e-5 -5.13283,1.031281 -6.679688,3.09375 -1.546889,2.062527 -2.320326,5.332055 -2.320312,9.808594 -1.4e-5,2.273454 0.199205,4.230484 0.597656,5.871094 0.421861,1.640636 1.007798,2.988291 1.757812,4.042969 0.749984,1.054695 1.652327,1.839851 2.707032,2.355468 1.054668,0.492194 2.214823,0.738288 3.480468,0.738282 1.453102,6e-6 2.742163,-0.246088 3.867188,-0.738282 1.148411,-0.515617 2.109347,-1.300773 2.882812,-2.355468 0.773409,-1.054678 1.359345,-2.402333 1.757813,-4.042969 0.398407,-1.64061 0.597625,-3.59764 0.597656,-5.871094"
         style=""
         id="path2987" />
      <path
         d="m 113.27623,73.065308 c -1.82814,-10e-7 -3.46876,-0.246095 -4.92188,-0.738282 -1.42969,-0.515624 -2.64844,-1.253905 -3.65625,-2.214843 -1.00782,-0.984372 -1.78125,-2.191402 -2.32031,-3.621094 -0.53907,-1.42968 -0.8086,-3.058585 -0.8086,-4.886719 0,-2.249987 0.38672,-4.136704 1.16016,-5.660156 0.79687,-1.546857 1.875,-2.789043 3.23438,-3.726563 1.35936,-0.960916 2.95311,-1.652322 4.78125,-2.074218 1.82811,-0.44529 3.77342,-0.679665 5.83593,-0.703125 l 8.19141,-0.140625 0,-1.933594 c -3e-5,-1.382786 -0.12893,-2.531223 -0.38672,-3.445313 -0.2344,-0.93747 -0.58596,-1.699188 -1.05469,-2.285156 -0.46877,-0.585906 -1.05471,-0.996062 -1.75781,-1.230469 -0.67971,-0.25778 -1.46486,-0.386686 -2.35547,-0.386718 -0.82033,3.2e-5 -1.55861,0.08206 -2.21484,0.246093 -0.63283,0.164095 -1.18361,0.457063 -1.65235,0.878907 -0.46876,0.398468 -0.85548,0.949249 -1.16015,1.652343 -0.28127,0.679717 -0.48048,1.546903 -0.59766,2.601563 l -10.30078,-0.492188 c 0.28125,-1.664033 0.79687,-3.17575 1.54688,-4.535156 0.74999,-1.382779 1.78124,-2.57809 3.09375,-3.585937 1.33592,-1.007776 2.96483,-1.781213 4.88671,-2.320313 1.9453,-0.562461 4.21874,-0.843711 6.82032,-0.84375 2.36716,3.9e-5 4.47654,0.293007 6.32812,0.878906 1.85154,0.585975 3.42185,1.464881 4.71094,2.636719 1.28903,1.148472 2.2734,2.566439 2.95312,4.253906 0.67966,1.68753 1.0195,3.644559 1.01954,5.871094 l 0,13.851563 c -4e-5,0.890635 0.0351,1.687509 0.10546,2.390625 0.0937,0.703133 0.24606,1.300788 0.45704,1.792968 0.23434,0.468757 0.55074,0.832038 0.94921,1.089844 0.42184,0.234381 0.9609,0.351568 1.61719,0.351563 0.74996,5e-6 1.47652,-0.07031 2.17969,-0.210938 l 0,5.34375 c -0.58598,0.140625 -1.11332,0.269532 -1.58203,0.386719 -0.46879,0.117187 -0.93754,0.210937 -1.40625,0.28125 -0.46879,0.07031 -0.97269,0.128906 -1.51172,0.175781 -0.51566,0.04687 -1.12504,0.07031 -1.82813,0.07031 -2.4844,-10e-7 -4.32424,-0.609375 -5.51953,-1.828125 -1.1719,-1.218748 -1.87502,-3.011715 -2.10937,-5.378907 l -0.21094,0 c -1.31252,2.367192 -3.00002,4.207034 -5.0625,5.519532 -2.03908,1.3125 -4.52345,1.968749 -7.45312,1.96875 m 11.49609,-18.316407 -5.0625,0.07031 c -1.05471,0.04689 -2.06252,0.140642 -3.02344,0.28125 -0.93751,0.117205 -1.76954,0.386735 -2.49609,0.808594 -0.70314,0.398453 -1.26564,0.98439 -1.6875,1.757812 -0.42189,0.773452 -0.63283,1.828138 -0.63281,3.164063 -2e-5,1.804697 0.41014,3.152352 1.23046,4.042968 0.84374,0.867194 1.95702,1.300788 3.33985,1.300782 1.26561,6e-6 2.41404,-0.269525 3.44531,-0.808594 1.03123,-0.539055 1.89842,-1.242179 2.60156,-2.109375 0.72654,-0.890615 1.28904,-1.910145 1.6875,-3.058594 0.39842,-1.148424 0.59763,-2.320298 0.59766,-3.515625 l 0,-1.933594"
         style=""
         id="path2989" />
      <path
         d="m 169.20982,72.362183 c -0.0469,-0.1875 -0.1055,-0.515625 -0.17578,-0.984375 -0.0469,-0.492186 -0.1055,-1.042967 -0.17578,-1.652344 -0.0469,-0.609372 -0.0938,-1.230465 -0.14063,-1.863281 -0.0235,-0.632808 -0.0352,-1.195307 -0.0352,-1.6875 l -0.14063,0 c -1.14846,2.460941 -2.75393,4.23047 -4.81641,5.308593 -2.03908,1.054688 -4.4883,1.582031 -7.34765,1.582032 -2.39064,-10e-7 -4.46486,-0.492188 -6.22266,-1.476563 -1.73438,-0.984373 -3.17579,-2.355466 -4.32422,-4.113281 -1.125,-1.757806 -1.96875,-3.832023 -2.53125,-6.222656 -0.53906,-2.414049 -0.80859,-5.039047 -0.80859,-7.875 0,-2.882791 0.28125,-5.531226 0.84375,-7.945313 0.58593,-2.414033 1.47656,-4.48825 2.67187,-6.222656 1.19531,-1.757778 2.70703,-3.12887 4.53516,-4.113281 1.85155,-0.984337 4.04295,-1.476524 6.57422,-1.476563 1.24217,3.9e-5 2.43748,0.128945 3.58594,0.386719 1.14841,0.25785 2.21482,0.656288 3.19922,1.195312 0.98435,0.539099 1.87497,1.230505 2.67187,2.074219 0.79685,0.843784 1.47654,1.863315 2.03906,3.058594 l 0.0703,0 c -3e-5,-0.234343 -0.0118,-0.574186 -0.0352,-1.019531 -3e-5,-0.468717 -3e-5,-0.99606 0,-1.582032 -3e-5,-0.585902 -0.0118,-1.195276 -0.0352,-1.828125 -3e-5,-0.632775 -3e-5,-1.242149 0,-1.828125 l 0,-13.886718 9.87891,0 0,43.875 c -4e-5,1.851569 0.0351,3.503911 0.10547,4.957031 0.0703,1.429689 0.12887,2.542969 0.17578,3.339844 l -9.5625,0 m -0.45703,-19.230469 c -3e-5,-2.507791 -0.23441,-4.582008 -0.70313,-6.222656 -0.46877,-1.664036 -1.08987,-2.976534 -1.86328,-3.9375 -0.75002,-0.984345 -1.61721,-1.664032 -2.60156,-2.039063 -0.96096,-0.398406 -1.94533,-0.597624 -2.95313,-0.597656 -1.26564,3.2e-5 -2.39064,0.246125 -3.375,0.738281 -0.96095,0.492218 -1.78126,1.265655 -2.46093,2.320313 -0.65627,1.054715 -1.16017,2.40237 -1.51172,4.042968 -0.32814,1.640649 -0.4922,3.621115 -0.49219,5.941407 -1e-5,8.62501 2.58983,12.937506 7.76953,12.9375 0.98436,6e-6 1.96873,-0.210932 2.95313,-0.632813 0.98435,-0.421868 1.86325,-1.136711 2.63672,-2.144531 0.77341,-1.007803 1.3945,-2.355458 1.86328,-4.042969 0.49216,-1.710923 0.73825,-3.832014 0.73828,-6.363281"
         style=""
         id="path2991" />
      <path
         d="m 188.58091,27.467651 0,-7.277343 9.87891,0 0,7.277343 -9.87891,0 m 0,44.894532 0,-38.039063 9.87891,0 0,38.039063 -9.87891,0"
         style=""
         id="path2993" />
      <path
         d="m 233.19419,72.362183 0,-21.339844 c -2e-5,-1.47654 -0.11721,-2.824195 -0.35156,-4.042969 -0.2344,-1.242161 -0.62112,-2.296847 -1.16015,-3.164062 -0.53909,-0.890596 -1.24222,-1.582002 -2.10938,-2.074219 -0.86721,-0.492157 -1.9219,-0.73825 -3.16406,-0.738281 -1.19534,3.1e-5 -2.28518,0.269562 -3.26953,0.808593 -0.96096,0.515655 -1.79299,1.265655 -2.4961,2.25 -0.70314,0.960965 -1.25392,2.12112 -1.65234,3.480469 -0.37502,1.335961 -0.56252,2.812522 -0.5625,4.429688 l 0,20.390625 -9.87891,0 0,-29.53125 c 0,-0.820283 -0.0117,-1.664032 -0.0351,-2.53125 -1e-5,-0.867155 -0.0234,-1.687467 -0.0703,-2.460938 -0.0234,-0.79684 -0.0469,-1.499964 -0.0703,-2.109375 -0.0234,-0.632775 -0.0586,-1.101525 -0.10547,-1.40625 l 9.42188,0 c 0.0469,0.281288 0.0937,0.738319 0.14062,1.371094 0.0469,0.609411 0.0937,1.289098 0.14063,2.039062 0.0469,0.750034 0.082,1.500033 0.10547,2.25 0.0469,0.750032 0.0703,1.382844 0.0703,1.898438 l 0.14062,0 c 1.33593,-2.906217 3.01171,-5.01559 5.02735,-6.328125 2.0156,-1.312462 4.41794,-1.968711 7.20703,-1.96875 2.29685,3.9e-5 4.23044,0.375038 5.80078,1.125 1.59372,0.750037 2.88278,1.781286 3.86719,3.09375 1.00777,1.312533 1.73434,2.859407 2.17969,4.640625 0.44527,1.781278 0.66793,3.703151 0.66796,5.765625 l 0,24.152344 -9.84375,0"
         style=""
         id="path2995" />
      <path
         d="m 268.49107,87.619995 c -2.50783,-1.5e-5 -4.72267,-0.257827 -6.64453,-0.773437 -1.89845,-0.492202 -3.52736,-1.195326 -4.88672,-2.109375 -1.33595,-0.890637 -2.41407,-1.968761 -3.23438,-3.234375 -0.79688,-1.242196 -1.34766,-2.613288 -1.65234,-4.113282 l 9.87891,-1.160156 c 0.35155,1.523432 1.10154,2.718744 2.25,3.585938 1.17185,0.867179 2.69529,1.300772 4.57031,1.300781 1.17185,-9e-6 2.23826,-0.164071 3.19922,-0.492188 0.98435,-0.328133 1.81638,-0.890632 2.49609,-1.6875 0.7031,-0.773443 1.24216,-1.804692 1.61719,-3.09375 0.39841,-1.289064 0.59763,-2.882813 0.59766,-4.78125 -3e-5,-0.656248 -3e-5,-1.324216 0,-2.003906 -3e-5,-0.679683 0.0117,-1.300777 0.0351,-1.863281 0.0234,-0.656244 0.0351,-1.289056 0.0352,-1.898438 l -0.0703,0 c -1.14847,2.460942 -2.76566,4.242191 -4.85157,5.34375 -2.06252,1.101563 -4.52345,1.652344 -7.38281,1.652344 -2.41408,0 -4.50001,-0.468749 -6.25781,-1.40625 -1.73439,-0.960935 -3.17579,-2.285152 -4.32422,-3.972656 -1.14844,-1.71093 -2.00391,-3.738272 -2.56641,-6.082031 -0.53906,-2.367174 -0.80859,-4.968734 -0.80859,-7.804688 0,-2.929665 0.29297,-5.5781 0.87891,-7.945312 0.58593,-2.390596 1.47655,-4.441375 2.67187,-6.152344 1.21874,-1.710902 2.74218,-3.023401 4.57031,-3.9375 1.85155,-0.937462 4.04296,-1.406211 6.57422,-1.40625 2.53123,3.9e-5 4.79295,0.539101 6.78516,1.617187 2.0156,1.078161 3.58591,2.824253 4.71094,5.238282 l 0.17578,0 c -3e-5,-0.492155 0.0117,-1.054655 0.0352,-1.6875 0.0469,-0.656216 0.0937,-1.277309 0.14063,-1.863282 0.0468,-0.609339 0.0937,-1.148401 0.14062,-1.617187 0.0703,-0.468713 0.12888,-0.785119 0.17578,-0.949219 l 9.35157,0 c -0.0469,0.843787 -0.0938,2.02738 -0.14063,3.550781 -0.0469,1.523471 -0.0703,3.269563 -0.0703,5.238282 l 0,28.089843 c -4e-5,2.765624 -0.39848,5.167965 -1.19531,7.207032 -0.79691,2.062492 -1.96879,3.773427 -3.51563,5.132812 -1.52347,1.359363 -3.41018,2.378893 -5.66015,3.058594 -2.22659,0.679672 -4.76956,1.019516 -7.62891,1.019531 m 8.26172,-34.804687 c -3e-5,-2.390603 -0.23441,-4.382789 -0.70313,-5.976563 -0.46877,-1.593723 -1.07815,-2.871065 -1.82812,-3.832031 -0.75003,-0.960907 -1.61721,-1.640594 -2.60156,-2.039063 -0.96096,-0.398405 -1.93362,-0.597624 -2.91797,-0.597656 -1.26565,3.2e-5 -2.39065,0.246126 -3.375,0.738281 -0.96096,0.492219 -1.78127,1.253937 -2.46094,2.285157 -0.6797,1.031278 -1.19533,2.343776 -1.54688,3.9375 -0.35157,1.593773 -0.52735,3.492209 -0.52734,5.695312 -1e-5,4.101578 0.65624,7.195325 1.96875,9.28125 1.31248,2.085946 3.26951,3.128913 5.87109,3.128906 0.98436,7e-6 1.95701,-0.187493 2.91797,-0.5625 0.98435,-0.398429 1.86326,-1.078116 2.63672,-2.039062 0.77341,-0.984365 1.39451,-2.285145 1.86328,-3.902344 0.46872,-1.617172 0.7031,-3.656233 0.70313,-6.117187"
         style=""
         id="path2997" />
      <path
         d="m 316.54966,27.467651 0,-7.277343 9.87891,0 0,7.277343 -9.87891,0 m 0,44.894532 0,-38.039063 9.87891,0 0,38.039063 -9.87891,0"
         style=""
         id="path2999" />
      <path
         d="m 358.91294,72.362183 0,-21.339844 c -2e-5,-1.47654 -0.10549,-2.824195 -0.3164,-4.042969 -0.18753,-1.242161 -0.51565,-2.296847 -0.98438,-3.164062 -0.44533,-0.890596 -1.04299,-1.582002 -1.79297,-2.074219 -0.72658,-0.492157 -1.61721,-0.73825 -2.67187,-0.738281 -1.00783,3.1e-5 -1.92189,0.269562 -2.74219,0.808593 -0.82033,0.515655 -1.53517,1.265655 -2.14453,2.25 -0.58595,0.960965 -1.04298,2.12112 -1.37109,3.480469 -0.32814,1.335961 -0.49221,2.812522 -0.49219,4.429688 l 0,20.390625 -9.87891,0 0,-29.53125 c 0,-0.820283 -0.0117,-1.664032 -0.0352,-2.53125 -10e-6,-0.867155 -0.0234,-1.687467 -0.0703,-2.460938 -0.0234,-0.79684 -0.0469,-1.499964 -0.0703,-2.109375 -0.0234,-0.632775 -0.0586,-1.101525 -0.10547,-1.40625 l 9.42188,0 c 0.0469,0.281288 0.0937,0.738319 0.14062,1.371094 0.0469,0.609411 0.0937,1.289098 0.14063,2.039062 0.0469,0.750034 0.082,1.500033 0.10547,2.25 0.0469,0.750032 0.0703,1.382844 0.0703,1.898438 l 0.14062,0 c 1.21874,-2.906217 2.73046,-5.01559 4.53516,-6.328125 1.8281,-1.312462 4.00779,-1.968711 6.53906,-1.96875 2.90622,3.9e-5 5.23825,0.714882 6.9961,2.144531 1.78121,1.406285 2.97652,3.457065 3.58593,6.152344 l 0.21094,0 c 0.67965,-1.570281 1.40621,-2.882779 2.17969,-3.9375 0.79684,-1.054652 1.66402,-1.898401 2.60156,-2.53125 0.9609,-0.656213 1.99215,-1.124962 3.09375,-1.40625 1.12496,-0.281211 2.34371,-0.421836 3.65625,-0.421875 2.08589,3.9e-5 3.8437,0.375038 5.27344,1.125 1.45307,0.750037 2.62494,1.781286 3.51562,3.09375 0.91401,1.312533 1.57026,2.859407 1.96875,4.640625 0.42182,1.781278 0.63276,3.703151 0.63282,5.765625 l 0,24.152344 -9.8086,0 0,-21.339844 c -5e-5,-1.47654 -0.10551,-2.824195 -0.3164,-4.042969 -0.18755,-1.242161 -0.51568,-2.296847 -0.98438,-3.164062 -0.44536,-0.890596 -1.04301,-1.582002 -1.79297,-2.074219 -0.7266,-0.492157 -1.61723,-0.73825 -2.67187,-0.738281 -0.98442,3.1e-5 -1.88676,0.257843 -2.70703,0.773437 -0.79692,0.492218 -1.50004,1.207061 -2.10938,2.144531 -0.58597,0.91409 -1.043,2.015652 -1.37109,3.304688 -0.32816,1.289086 -0.51566,2.718772 -0.5625,4.289062 l 0,20.847657 -9.8086,0"
         style=""
         id="path3001" />
      <path
         d="m 409.29185,73.065308 c -1.82814,-10e-7 -3.46876,-0.246095 -4.92187,-0.738282 -1.4297,-0.515624 -2.64845,-1.253905 -3.65625,-2.214843 -1.00782,-0.984372 -1.78126,-2.191402 -2.32032,-3.621094 -0.53906,-1.42968 -0.80859,-3.058585 -0.80859,-4.886719 0,-2.249987 0.38672,-4.136704 1.16016,-5.660156 0.79687,-1.546857 1.87499,-2.789043 3.23437,-3.726563 1.35937,-0.960916 2.95312,-1.652322 4.78125,-2.074218 1.82811,-0.44529 3.77342,-0.679665 5.83594,-0.703125 l 8.1914,-0.140625 0,-1.933594 c -2e-5,-1.382786 -0.12893,-2.531223 -0.38671,-3.445313 -0.2344,-0.93747 -0.58597,-1.699188 -1.05469,-2.285156 -0.46877,-0.585906 -1.05471,-0.996062 -1.75781,-1.230469 -0.67971,-0.25778 -1.46487,-0.386686 -2.35547,-0.386718 -0.82033,3.2e-5 -1.55861,0.08206 -2.21485,0.246093 -0.63283,0.164095 -1.18361,0.457063 -1.65234,0.878907 -0.46877,0.398468 -0.85548,0.949249 -1.16016,1.652343 -0.28126,0.679717 -0.48048,1.546903 -0.59765,2.601563 l -10.30078,-0.492188 c 0.28124,-1.664033 0.79687,-3.17575 1.54687,-4.535156 0.74999,-1.382779 1.78124,-2.57809 3.09375,-3.585937 1.33593,-1.007776 2.96483,-1.781213 4.88672,-2.320313 1.9453,-0.562461 4.21873,-0.843711 6.82031,-0.84375 2.36717,3.9e-5 4.47654,0.293007 6.32813,0.878906 1.85153,0.585975 3.42184,1.464881 4.71093,2.636719 1.28903,1.148472 2.27341,2.566439 2.95313,4.253906 0.67965,1.68753 1.0195,3.644559 1.01953,5.871094 l 0,13.851563 c -3e-5,0.890635 0.0351,1.687509 0.10547,2.390625 0.0937,0.703133 0.24606,1.300788 0.45703,1.792968 0.23434,0.468757 0.55075,0.832038 0.94922,1.089844 0.42184,0.234381 0.9609,0.351568 1.61719,0.351563 0.74996,5e-6 1.47652,-0.07031 2.17968,-0.210938 l 0,5.34375 c -0.58597,0.140625 -1.11332,0.269532 -1.58203,0.386719 -0.46878,0.117187 -0.93753,0.210937 -1.40625,0.28125 -0.46878,0.07031 -0.97269,0.128906 -1.51172,0.175781 -0.51566,0.04687 -1.12503,0.07031 -1.82812,0.07031 -2.48441,-10e-7 -4.32425,-0.609375 -5.51953,-1.828125 -1.1719,-1.218748 -1.87503,-3.011715 -2.10938,-5.378907 l -0.21093,0 c -1.31253,2.367192 -3.00003,4.207034 -5.0625,5.519532 -2.03909,1.3125 -4.52346,1.968749 -7.45313,1.96875 m 11.49609,-18.316407 -5.0625,0.07031 c -1.0547,0.04689 -2.06251,0.140642 -3.02343,0.28125 -0.93752,0.117205 -1.76955,0.386735 -2.4961,0.808594 -0.70314,0.398453 -1.26563,0.98439 -1.6875,1.757812 -0.42188,0.773452 -0.63282,1.828138 -0.63281,3.164063 -1e-5,1.804697 0.41014,3.152352 1.23047,4.042968 0.84374,0.867194 1.95702,1.300788 3.33984,1.300782 1.26561,6e-6 2.41405,-0.269525 3.44532,-0.808594 1.03122,-0.539055 1.89841,-1.242179 2.60156,-2.109375 0.72654,-0.890615 1.28904,-1.910145 1.6875,-3.058594 0.39841,-1.148424 0.59763,-2.320298 0.59765,-3.515625 l 0,-1.933594"
         style=""
         id="path3003" />
      <path
         d="m 456.50669,87.619995 c -2.50783,-1.5e-5 -4.72267,-0.257827 -6.64453,-0.773437 -1.89845,-0.492202 -3.52735,-1.195326 -4.88672,-2.109375 -1.33594,-0.890637 -2.41406,-1.968761 -3.23437,-3.234375 -0.79688,-1.242196 -1.34766,-2.613288 -1.65234,-4.113282 l 9.8789,-1.160156 c 0.35155,1.523432 1.10155,2.718744 2.25,3.585938 1.17186,0.867179 2.6953,1.300772 4.57031,1.300781 1.17186,-9e-6 2.23826,-0.164071 3.19922,-0.492188 0.98435,-0.328133 1.81638,-0.890632 2.4961,-1.6875 0.70309,-0.773443 1.24216,-1.804692 1.61718,-3.09375 0.39841,-1.289064 0.59763,-2.882813 0.59766,-4.78125 -3e-5,-0.656248 -3e-5,-1.324216 0,-2.003906 -3e-5,-0.679683 0.0117,-1.300777 0.0352,-1.863281 0.0234,-0.656244 0.0351,-1.289056 0.0352,-1.898438 l -0.0703,0 c -1.14846,2.460942 -2.76565,4.242191 -4.85156,5.34375 -2.06252,1.101563 -4.52346,1.652344 -7.38281,1.652344 -2.41408,0 -4.50002,-0.468749 -6.25782,-1.40625 -1.73438,-0.960935 -3.17579,-2.285152 -4.32422,-3.972656 -1.14844,-1.71093 -2.00391,-3.738272 -2.5664,-6.082031 -0.53907,-2.367174 -0.8086,-4.968734 -0.8086,-7.804688 0,-2.929665 0.29297,-5.5781 0.87891,-7.945312 0.58593,-2.390596 1.47656,-4.441375 2.67188,-6.152344 1.21874,-1.710902 2.74217,-3.023401 4.57031,-3.9375 1.85155,-0.937462 4.04295,-1.406211 6.57422,-1.40625 2.53123,3.9e-5 4.79294,0.539101 6.78515,1.617187 2.0156,1.078161 3.58591,2.824253 4.71094,5.238282 l 0.17578,0 c -3e-5,-0.492155 0.0117,-1.054655 0.0352,-1.6875 0.0468,-0.656216 0.0937,-1.277309 0.14062,-1.863282 0.0469,-0.609339 0.0937,-1.148401 0.14063,-1.617187 0.0703,-0.468713 0.12888,-0.785119 0.17578,-0.949219 l 9.35156,0 c -0.0469,0.843787 -0.0938,2.02738 -0.14062,3.550781 -0.0469,1.523471 -0.0703,3.269563 -0.0703,5.238282 l 0,28.089843 c -3e-5,2.765624 -0.39847,5.167965 -1.19531,7.207032 -0.79691,2.062492 -1.96878,3.773427 -3.51562,5.132812 -1.52347,1.359363 -3.41019,2.378893 -5.66016,3.058594 -2.22659,0.679672 -4.76955,1.019516 -7.62891,1.019531 m 8.26172,-34.804687 c -3e-5,-2.390603 -0.2344,-4.382789 -0.70312,-5.976563 -0.46878,-1.593723 -1.07815,-2.871065 -1.82813,-3.832031 -0.75002,-0.960907 -1.61721,-1.640594 -2.60156,-2.039063 -0.96096,-0.398405 -1.93361,-0.597624 -2.91797,-0.597656 -1.26564,3.2e-5 -2.39064,0.246126 -3.375,0.738281 -0.96095,0.492219 -1.78126,1.253937 -2.46094,2.285157 -0.6797,1.031278 -1.19532,2.343776 -1.54687,3.9375 -0.35158,1.593773 -0.52736,3.492209 -0.52734,5.695312 -2e-5,4.101578 0.65623,7.195325 1.96875,9.28125 1.31248,2.085946 3.26951,3.128913 5.87109,3.128906 0.98435,7e-6 1.95701,-0.187493 2.91797,-0.5625 0.98435,-0.398429 1.86325,-1.078116 2.63672,-2.039062 0.77341,-0.984365 1.3945,-2.285145 1.86328,-3.902344 0.46872,-1.617172 0.70309,-3.656233 0.70312,-6.117187"
         style=""
         id="path3005" />
      <path
         d="m 500.17076,73.065308 c -2.74221,-10e-7 -5.21486,-0.398438 -7.41797,-1.195313 -2.1797,-0.820311 -4.04298,-2.050779 -5.58985,-3.691406 -1.54688,-1.664057 -2.73047,-3.738273 -3.55078,-6.222656 -0.82031,-2.5078 -1.23047,-5.437485 -1.23047,-8.789063 0,-3.63279 0.48047,-6.69138 1.44141,-9.175781 0.98437,-2.484344 2.29687,-4.488249 3.9375,-6.011719 1.66405,-1.546839 3.57421,-2.660119 5.73047,-3.339844 2.15623,-0.679649 4.42967,-1.019492 6.82031,-1.019531 2.99998,3.9e-5 5.55466,0.527382 7.66406,1.582031 2.13279,1.031286 3.87888,2.48441 5.23829,4.359375 1.35934,1.875031 2.35543,4.125029 2.98828,6.75 0.63277,2.601586 0.94918,5.484396 0.94922,8.648438 l 0,0.28125 -24.39844,0 c -1e-5,1.593765 0.14061,3.082045 0.42187,4.464844 0.28124,1.359386 0.73827,2.542978 1.3711,3.550781 0.63279,0.984383 1.45311,1.769538 2.46093,2.355469 1.0078,0.562506 2.22655,0.843756 3.65625,0.84375 1.73436,6e-6 3.15232,-0.363275 4.25391,-1.089844 1.10154,-0.749992 1.88669,-1.898429 2.35547,-3.445313 l 9.31641,0.808594 c -0.42192,1.078134 -1.01957,2.22657 -1.79297,3.445313 -0.75004,1.218755 -1.75785,2.343753 -3.02344,3.375 -1.26566,1.007814 -2.84769,1.851563 -4.74609,2.53125 -1.87503,0.656249 -4.16018,0.984374 -6.85547,0.984375 m 0,-33.222657 c -1.00783,3.3e-5 -1.95705,0.175814 -2.84766,0.527344 -0.8672,0.328157 -1.62892,0.867219 -2.28516,1.617188 -0.63282,0.726592 -1.14845,1.67581 -1.54687,2.847656 -0.39845,1.171901 -0.62111,2.57815 -0.66797,4.21875 l 14.76563,0 c -0.18753,-3.070286 -0.92581,-5.367159 -2.21485,-6.890625 -1.28908,-1.546843 -3.02346,-2.32028 -5.20312,-2.320313"
         style=""
         id="path3007" />
      <path
         d="m 524.53404,72.362183 0,-10.722657 10.16015,0 0,10.722657 -10.16015,0"
         style=""
         id="path3009" />
      <path
         d="m 544.50279,72.362183 0,-10.722657 10.16015,0 0,10.722657 -10.16015,0"
         style=""
         id="path3011" />
      <path
         d="m 564.47154,72.362183 0,-10.722657 10.16015,0 0,10.722657 -10.16015,0"
         style=""
         id="path3013" />
    </g>
  </g>
</svg>
