<?xml version="1.0" encoding="UTF-8" standalone="no"?>
<!-- Created with Inkscape (http://www.inkscape.org/) -->

<svg
   xmlns:dc="http://purl.org/dc/elements/1.1/"
   xmlns:cc="http://creativecommons.org/ns#"
   xmlns:rdf="http://www.w3.org/1999/02/22-rdf-syntax-ns#"
   xmlns:svg="http://www.w3.org/2000/svg"
   xmlns="http://www.w3.org/2000/svg"
   xmlns:sodipodi="http://sodipodi.sourceforge.net/DTD/sodipodi-0.dtd"
   xmlns:inkscape="http://www.inkscape.org/namespaces/inkscape"
   width="292.785"
   height="64.85907"
   id="svg2"
   version="1.1"
   inkscape:version="0.48.1 r9760"
   sodipodi:docname="slightsync4.svg"
   inkscape:export-filename="/home/jori/slightsynclogo.png"
   inkscape:export-xdpi="245.91"
   inkscape:export-ydpi="245.91">
  <defs
     id="defs4">
    <filter
       color-interpolation-filters="sRGB"
       inkscape:collect="always"
       id="filter3852">
      <feGaussianBlur
         inkscape:collect="always"
         stdDeviation="0.56919645"
         id="feGaussianBlur3854" />
    </filter>
  </defs>
  <sodipodi:namedview
     id="base"
     pagecolor="#ffffff"
     bordercolor="#666666"
     borderopacity="1.0"
     inkscape:pageopacity="0.0"
     inkscape:pageshadow="2"
     inkscape:zoom="1.979899"
     inkscape:cx="164.03567"
     inkscape:cy="50.808"
     inkscape:document-units="px"
     inkscape:current-layer="layer1"
     showgrid="false"
     inkscape:window-width="1314"
     inkscape:window-height="748"
     inkscape:window-x="49"
     inkscape:window-y="-3"
     inkscape:window-maximized="1"
     fit-margin-top="0"
     fit-margin-left="0"
     fit-margin-right="0"
     fit-margin-bottom="0" />
  <metadata
     id="metadata7">
    <rdf:RDF>
      <cc:Work
         rdf:about="">
        <dc:format>image/svg+xml</dc:format>
        <dc:type
           rdf:resource="http://purl.org/dc/dcmitype/StillImage" />
        <dc:title></dc:title>
      </cc:Work>
    </rdf:RDF>
  </metadata>
  <g
     inkscape:label="Layer 1"
     inkscape:groupmode="layer"
     id="layer1"
     transform="translate(-142.496,-642.39229)">
    <g
       style="font-size:64px;font-style:normal;font-variant:normal;font-weight:bold;font-stretch:normal;line-height:125%;letter-spacing:0px;word-spacing:0px;fill:#355681;fill-opacity:1;stroke:none;font-family:TSCu_Paranar;-inkscape-font-specification:TSCu_Paranar Bold"
       id="text2985">
      <path
         d="m 147.68,681.65136 2.56,0 0.064,1.28 0.32,1.344 0.448,1.28 0.768,1.088 c 0.25599,0.42668 0.74665,0.96001 1.472,1.6 0.72532,0.59734 1.59999,1.13067 2.624,1.6 0.21332,0.0427 0.34132,0.0853 0.384,0.128 l 0.384,0.064 c 0.21332,0.0427 0.34132,0.0853 0.384,0.128 l 0.384,0.192 1.408,0.32 1.792,0.32 0.64,0 c 0.85331,0 1.55731,-0.064 2.112,-0.192 0.55464,-0.128 0.91731,-0.21333 1.088,-0.256 0.21331,-0.0853 0.51197,-0.19199 0.896,-0.32 0.42664,-0.17066 0.93864,-0.49066 1.536,-0.96 l 1.664,-1.536 c 0.42664,-0.46933 0.76797,-1.04532 1.024,-1.728 0.12797,-0.38399 0.23464,-1.02399 0.32,-1.92 -3e-5,-0.55465 -0.0854,-1.06665 -0.256,-1.536 -0.1707,-0.51199 -0.44803,-1.10932 -0.832,-1.792 -0.38403,-0.51198 -0.87469,-0.93865 -1.472,-1.28 -0.55469,-0.38398 -1.30136,-0.74665 -2.24,-1.088 l -2.432,-0.768 -4.736,-1.216 -4.928,-1.344 c -0.46935,-0.12798 -0.96001,-0.27731 -1.472,-0.448 -0.46934,-0.17065 -1.06668,-0.46931 -1.792,-0.896 -0.72534,-0.42664 -1.47201,-0.95998 -2.24,-1.6 l -2.048,-2.176 -1.088,-2.688 c -0.128,-0.5973 -0.21334,-1.00264 -0.256,-1.216 -0.0427,-0.25597 -0.064,-0.6613 -0.064,-1.216 l 0.064,-1.344 c 0.0853,-0.5973 0.192,-1.1093 0.32,-1.536 0.17066,-0.4693 0.34133,-0.8533 0.512,-1.152 l 0.768,-1.408 c 0.55466,-0.81063 1.25866,-1.57863 2.112,-2.304 0.85332,-0.72529 1.91999,-1.42929 3.2,-2.112 l 3.52,-1.024 1.92,-0.256 2.048,-0.128 2.56,0 2.368,0.064 0.512,0 0.64,0.064 0.64,0.064 0.704,0.192 c 0.51197,4e-5 1.02397,0.12804 1.536,0.384 0.55464,0.12804 1.1093,0.36271 1.664,0.704 1.19464,0.38404 2.21864,0.98137 3.072,1.792 0.93863,0.72537 1.70663,1.5787 2.304,2.56 l 0.832,1.536 0.576,1.536 0.448,1.6 0.128,1.728 -5.248,0.448 -2.56,0 c -0.12803,-1.27997 -0.42669,-2.3893 -0.896,-3.328 -0.38403,-0.9813 -1.02403,-1.8133 -1.92,-2.496 -0.59736,-0.55463 -1.42936,-1.02396 -2.496,-1.408 -1.06669,-0.42663 -2.21869,-0.63996 -3.456,-0.64 -0.85335,4e-5 -1.49335,0.0214 -1.92,0.064 -0.38402,0.0427 -0.89602,0.19204 -1.536,0.448 -0.89602,0.25604 -1.68535,0.66137 -2.368,1.216 -0.68268,0.5547 -1.21601,1.23737 -1.6,2.048 -0.38401,0.76803 -0.57601,1.55737 -0.576,2.368 -1e-5,0.72536 0.10665,1.3867 0.32,1.984 0.25599,0.5547 0.63999,1.08803 1.152,1.6 0.38399,0.34136 1.30132,0.76803 2.752,1.28 l 5.632,1.472 c 2.38931,0.51202 4.30931,1.02402 5.76,1.536 1.53597,0.46936 2.60264,0.89602 3.2,1.28 1.15197,0.51202 2.15463,1.13069 3.008,1.856 0.89597,0.64002 1.6213,1.42935 2.176,2.368 0.5973,0.85335 1.0453,1.77068 1.344,2.752 0.12796,0.42668 0.23463,0.89601 0.32,1.408 0.0853,0.51201 0.12796,1.04535 0.128,1.6 -4e-5,1.23734 -0.14937,2.32534 -0.448,3.264 -0.25604,0.89601 -0.70404,1.83467 -1.344,2.816 -0.51204,0.93867 -1.23737,1.77067 -2.176,2.496 -0.89603,0.68267 -1.9627,1.344 -3.2,1.984 -0.38403,0.17067 -0.98136,0.384 -1.792,0.64 -0.81069,0.256 -1.68536,0.46933 -2.624,0.64 -0.89603,0.21333 -2.09069,0.32 -3.584,0.32 l -2.56,0.064 c -1.87735,0 -3.56268,-0.14933 -5.056,-0.448 -1.45068,-0.17067 -2.83735,-0.49067 -4.16,-0.96 -1.19468,-0.512 -2.32534,-1.17333 -3.392,-1.984 -0.93867,-0.81066 -1.81334,-1.81333 -2.624,-3.008 l -0.96,-1.728 -0.704,-1.792 -0.512,-1.92 -0.128,-1.92 5.184,-0.448"
         style="fill:#355681;fill-opacity:1"
         id="path3907"
         inkscape:connector-curvature="0" />
      <path
         d="m 184.398,654.25936 2.56,0 5.056,0 0,40.96 -2.56,0 -5.056,0 0,-40.96"
         style="fill:#355681;fill-opacity:1"
         id="path3909"
         inkscape:connector-curvature="0" />
      <path
         d="m 199.712,665.52336 2.56,0 5.12,0 0,29.696 -2.56,0 -5.12,0 0,-29.696"
         id="path3911"
         inkscape:connector-curvature="0"
         sodipodi:nodetypes="ccccccc"
         style="fill:#355681;fill-opacity:1" />
      <path
         d="m 221.49,698.35536 0.064,0.576 c 0.0427,0.21333 0.0853,0.34133 0.128,0.384 l 0.128,0.32 0.256,0.576 0.384,0.64 0.768,0.768 1.728,0.896 c 0.76799,0.29866 1.49332,0.44799 2.176,0.448 0.72532,-10e-6 1.40798,-0.12801 2.048,-0.384 0.63998,-0.21334 1.19465,-0.49067 1.664,-0.832 0.46931,-0.34134 0.95998,-0.85334 1.472,-1.536 0.55465,-0.64 1.06664,-1.49334 1.536,-2.56 l 0.256,-2.432 0,-1.6 c -0.72536,0.46933 -1.57869,0.85333 -2.56,1.152 -0.98135,0.29867 -2.02668,0.448 -3.136,0.448 l -2.56,0 c -1.92001,0 -3.64801,-0.36267 -5.184,-1.088 -1.49334,-0.768 -2.83734,-1.87733 -4.032,-3.328 -1.152,-1.49333 -2.048,-3.11466 -2.688,-4.864 -0.59734,-1.79199 -0.896,-3.69065 -0.896,-5.696 0,-1.19465 0.128,-2.41065 0.384,-3.648 0.256,-1.23731 0.64,-2.51731 1.152,-3.84 0.512,-1.15198 1.152,-2.23997 1.92,-3.264 0.76799,-1.02397 1.66399,-1.85597 2.688,-2.496 1.02399,-0.68264 2.11199,-1.19464 3.264,-1.536 1.15199,-0.38397 2.30399,-0.57597 3.456,-0.576 l 2.56,0 c 0.38398,3e-5 0.83198,0.0214 1.344,0.064 0.51198,3e-5 1.15198,0.14936 1.92,0.448 1.06665,0.25603 2.02664,0.72536 2.88,1.408 l 0,-1.28 2.56,0 4.608,0 0,25.728 0,0.832 c -3e-5,0.85334 -0.0214,1.70667 -0.064,2.56 -0.0427,0.85333 -0.14936,1.87733 -0.32,3.072 -0.1707,1.19466 -0.4907,2.24 -0.96,3.136 -0.34136,0.89599 -0.89603,1.74933 -1.664,2.56 -0.76803,0.81066 -1.64269,1.47199 -2.624,1.984 -0.93869,0.55466 -2.11202,1.00266 -3.52,1.344 -0.68269,0.12799 -1.36535,0.23466 -2.048,0.32 -0.68269,0.0853 -1.42935,0.12799 -2.24,0.128 l -2.56,0.064 c -0.93868,-10e-6 -1.74935,-0.0427 -2.432,-0.128 -0.68268,-0.0853 -1.42934,-0.27734 -2.24,-0.576 -1.32268,-0.38401 -2.56001,-0.96001 -3.712,-1.728 -1.10934,-0.76801 -1.94134,-1.77067 -2.496,-3.008 -0.55467,-1.23734 -0.832,-2.64534 -0.832,-4.224 l 2.56,0.064 4.864,0.704 m -0.064,-13.376 c 0.38399,1.49334 0.93866,2.64534 1.664,3.456 0.55465,0.59734 1.23732,1.15201 2.048,1.664 0.72532,0.34134 1.53598,0.61867 2.432,0.832 0.81065,-0.128 1.59998,-0.38399 2.368,-0.768 0.81065,-0.42666 1.55731,-1.04533 2.24,-1.856 0.68265,-0.81066 1.25864,-1.94132 1.728,-3.392 0.42664,-1.57865 0.63998,-3.19999 0.64,-4.864 -2e-5,-0.98132 -0.0427,-1.83465 -0.128,-2.56 -0.0854,-0.72531 -0.25602,-1.49331 -0.512,-2.304 -0.38402,-1.45064 -0.93869,-2.55998 -1.664,-3.328 -0.72535,-0.81064 -1.45069,-1.40797 -2.176,-1.792 -0.68268,-0.38397 -1.49335,-0.68264 -2.432,-0.896 -0.76802,0.12803 -1.51468,0.40536 -2.24,0.832 -0.51201,0.29869 -1.19468,0.87469 -2.048,1.728 -0.72534,0.85336 -1.34401,1.98402 -1.856,3.392 -0.17068,0.59735 -0.32001,1.32269 -0.448,2.176 -0.12801,0.81068 -0.19201,1.66402 -0.192,2.56 -1e-5,1.87735 0.19199,3.58401 0.576,5.12"
         style="fill:#355681;fill-opacity:1"
         id="path3913"
         inkscape:connector-curvature="0" />
      <path
         d="m 249.337,654.25936 2.56,0 5.12,0 0,12.416 c 0.89599,-0.5973 1.85599,-1.0453 2.88,-1.344 0.51199,-0.12797 1.04532,-0.23464 1.6,-0.32 0.55465,-0.0853 1.15198,-0.12797 1.792,-0.128 l 2.56,0 c 0.55465,3e-5 1.08798,0.0214 1.6,0.064 0.55464,0.0427 1.17331,0.14936 1.856,0.32 0.72531,0.12803 1.49331,0.44803 2.304,0.96 0.76797,0.38403 1.42931,0.85336 1.984,1.408 0.5973,0.55469 1.06664,1.23736 1.408,2.048 0.38397,0.76803 0.6613,1.72802 0.832,2.88 l 0.256,3.84 0,18.816 -2.56,0 -4.992,0 0,-18.816 c -2e-5,-1.32265 -0.14936,-2.41065 -0.448,-3.264 -0.25602,-0.85331 -0.66136,-1.59998 -1.216,-2.24 -0.34135,-0.38397 -0.76802,-0.70397 -1.28,-0.96 -0.46935,-0.25597 -1.10935,-0.44797 -1.92,-0.576 -0.46935,3e-5 -0.93868,0.10669 -1.408,0.32 l -1.664,0.64 -1.408,1.344 -1.408,1.856 c -0.25601,0.64002 -0.44801,1.45069 -0.576,2.432 l -0.192,3.008 0,16.256 -2.56,0 -5.12,0 0,-40.96"
         style="fill:#355681;fill-opacity:1"
         id="path3915"
         inkscape:connector-curvature="0" />
      <path
         d="m 298.048,695.21936 -1.984,0.192 -1.792,0.128 -2.56,0 c -0.93868,0 -1.74934,-0.0853 -2.432,-0.256 -0.76801,-0.0853 -1.40801,-0.23467 -1.92,-0.448 l -1.216,-1.024 -0.832,-1.216 c -0.0853,-0.21333 -0.19201,-0.53333 -0.32,-0.96 -0.0853,-0.46933 -0.14934,-0.87466 -0.192,-1.216 l -0.128,-3.904 0,-17.024 -3.712,0 0,-3.968 3.712,0 0,-7.36 4.992,-3.008 2.56,0 0,10.368 5.056,0 0,3.968 -5.056,0 0,17.344 0.064,1.792 c -1e-5,0.42667 0.0853,0.74667 0.256,0.96 l 0.32,0.512 0.512,0.448 0.32,0.192 c 0.21332,0.0427 0.34132,0.0853 0.384,0.128 l 0.256,0 c 0.21332,-0.0427 0.34132,-0.0853 0.384,-0.128 l 2.56,0 0.768,4.48"
         style="fill:#355681;fill-opacity:1"
         id="path3917"
         inkscape:connector-curvature="0" />
      <path
         d="m 306.055,681.65136 2.56,0 0.064,1.28 0.32,1.344 0.448,1.28 0.768,1.088 c 0.25599,0.42668 0.74665,0.96001 1.472,1.6 0.72532,0.59734 1.59999,1.13067 2.624,1.6 0.21332,0.0427 0.34132,0.0853 0.384,0.128 l 0.384,0.064 c 0.21332,0.0427 0.34132,0.0853 0.384,0.128 l 0.384,0.192 1.408,0.32 1.792,0.32 0.64,0 c 0.85331,0 1.55731,-0.064 2.112,-0.192 0.55464,-0.128 0.91731,-0.21333 1.088,-0.256 0.21331,-0.0853 0.51197,-0.19199 0.896,-0.32 0.42664,-0.17066 0.93864,-0.49066 1.536,-0.96 l 1.664,-1.536 c 0.42664,-0.46933 0.76797,-1.04532 1.024,-1.728 0.12797,-0.38399 0.23464,-1.02399 0.32,-1.92 -3e-5,-0.55465 -0.0854,-1.06665 -0.256,-1.536 -0.1707,-0.51199 -0.44803,-1.10932 -0.832,-1.792 -0.38403,-0.51198 -0.87469,-0.93865 -1.472,-1.28 -0.55469,-0.38398 -1.30136,-0.74665 -2.24,-1.088 l -2.432,-0.768 -4.736,-1.216 -4.928,-1.344 c -0.46935,-0.12798 -0.96001,-0.27731 -1.472,-0.448 -0.46934,-0.17065 -1.06668,-0.46931 -1.792,-0.896 -0.72534,-0.42664 -1.47201,-0.95998 -2.24,-1.6 l -2.048,-2.176 -1.088,-2.688 c -0.128,-0.5973 -0.21334,-1.00264 -0.256,-1.216 -0.0427,-0.25597 -0.064,-0.6613 -0.064,-1.216 l 0.064,-1.344 c 0.0853,-0.5973 0.192,-1.1093 0.32,-1.536 0.17066,-0.4693 0.34133,-0.8533 0.512,-1.152 l 0.768,-1.408 c 0.55466,-0.81063 1.25866,-1.57863 2.112,-2.304 0.85332,-0.72529 1.91999,-1.42929 3.2,-2.112 l 3.52,-1.024 1.92,-0.256 2.048,-0.128 2.56,0 2.368,0.064 0.512,0 0.64,0.064 0.64,0.064 0.704,0.192 c 0.51197,4e-5 1.02397,0.12804 1.536,0.384 0.55464,0.12804 1.1093,0.36271 1.664,0.704 1.19464,0.38404 2.21864,0.98137 3.072,1.792 0.93863,0.72537 1.70663,1.5787 2.304,2.56 l 0.832,1.536 0.576,1.536 0.448,1.6 0.128,1.728 -5.248,0.448 -2.56,0 c -0.12803,-1.27997 -0.42669,-2.3893 -0.896,-3.328 -0.38403,-0.9813 -1.02403,-1.8133 -1.92,-2.496 -0.59736,-0.55463 -1.42936,-1.02396 -2.496,-1.408 -1.06669,-0.42663 -2.21869,-0.63996 -3.456,-0.64 -0.85335,4e-5 -1.49335,0.0214 -1.92,0.064 -0.38402,0.0427 -0.89602,0.19204 -1.536,0.448 -0.89602,0.25604 -1.68535,0.66137 -2.368,1.216 -0.68268,0.5547 -1.21601,1.23737 -1.6,2.048 -0.38401,0.76803 -0.57601,1.55737 -0.576,2.368 -1e-5,0.72536 0.10665,1.3867 0.32,1.984 0.25599,0.5547 0.63999,1.08803 1.152,1.6 0.38399,0.34136 1.30132,0.76803 2.752,1.28 l 5.632,1.472 c 2.38931,0.51202 4.30931,1.02402 5.76,1.536 1.53597,0.46936 2.60264,0.89602 3.2,1.28 1.15197,0.51202 2.15463,1.13069 3.008,1.856 0.89597,0.64002 1.6213,1.42935 2.176,2.368 0.5973,0.85335 1.0453,1.77068 1.344,2.752 0.12796,0.42668 0.23463,0.89601 0.32,1.408 0.0853,0.51201 0.12796,1.04535 0.128,1.6 -4e-5,1.23734 -0.14937,2.32534 -0.448,3.264 -0.25604,0.89601 -0.70404,1.83467 -1.344,2.816 -0.51204,0.93867 -1.23737,1.77067 -2.176,2.496 -0.89603,0.68267 -1.9627,1.344 -3.2,1.984 -0.38403,0.17067 -0.98136,0.384 -1.792,0.64 -0.81069,0.256 -1.68536,0.46933 -2.624,0.64 -0.89603,0.21333 -2.09069,0.32 -3.584,0.32 l -2.56,0.064 c -1.87735,0 -3.56268,-0.14933 -5.056,-0.448 -1.45068,-0.17067 -2.83735,-0.49067 -4.16,-0.96 -1.19468,-0.512 -2.32534,-1.17333 -3.392,-1.984 -0.93867,-0.81066 -1.81334,-1.81333 -2.624,-3.008 l -0.96,-1.728 -0.704,-1.792 -0.512,-1.92 -0.128,-1.92 5.184,-0.448"
         style="fill:#355681;fill-opacity:1"
         id="path3919"
         inkscape:connector-curvature="0" />
      <path
         d="m 342.069,701.87536 2.56,0 1.6,0.32 0.32,-0.192 0.384,-0.064 0.32,-0.128 c 0.21332,-0.0427 0.34132,-0.0853 0.384,-0.128 0.29866,-0.17067 0.51199,-0.32001 0.64,-0.448 l 1.024,-1.088 0.576,-1.28 0.96,-2.496 0.512,-1.152 -11.392,-29.696 2.56,0 5.504,0 6.208,17.216 0.192,0.64 0.192,0.576 0.192,0.64 0.192,0.576 0.384,-1.088 0.448,-1.216 6.4,-17.344 2.56,0 4.992,0 -11.264,30.144 -1.664,4.16 c -0.42668,1.15199 -0.83202,2.02666 -1.216,2.624 -0.25602,0.59733 -0.66135,1.21599 -1.216,1.856 l -1.792,1.728 -1.856,0.96 -2.304,0.256 -2.56,0 -1.472,-0.192 -1.792,-0.448 -0.576,-4.736"
         style="fill:#355681;fill-opacity:1"
         id="path3921"
         inkscape:connector-curvature="0" />
      <path
         d="m 373.962,665.52336 2.56,0 4.544,0 0,1.536 c 0.93865,-0.68264 1.98399,-1.21597 3.136,-1.6 1.15198,-0.38397 2.41065,-0.57597 3.776,-0.576 l 2.56,0 c 0.38398,3e-5 0.72531,3e-5 1.024,0 0.29865,3e-5 0.78931,0.0854 1.472,0.256 0.89598,0.12803 1.70664,0.3627 2.432,0.704 0.59731,0.21336 1.21597,0.53336 1.856,0.96 0.46931,0.38403 0.87464,0.81069 1.216,1.28 0.38397,0.42669 0.7253,0.98136 1.024,1.664 l 0.832,2.304 0.192,1.92 0.064,3.008 0,18.24 -2.56,0 -4.992,0 0,-17.984 -0.064,-2.688 -0.128,-0.832 -0.32,-0.896 c -0.12802,-0.55464 -0.36269,-1.02398 -0.704,-1.408 -0.29869,-0.38398 -0.76802,-0.81064 -1.408,-1.28 l -0.576,-0.256 -0.576,-0.256 -0.64,-0.128 -0.576,-0.192 c -0.81068,0.12803 -1.55735,0.36269 -2.24,0.704 -0.68268,0.25603 -1.36535,0.68269 -2.048,1.28 -0.68268,0.59736 -1.21601,1.55736 -1.6,2.88 -0.38401,1.28002 -0.57601,2.90135 -0.576,4.864 l 0,16.192 -2.56,0 -5.12,0 0,-29.696"
         style="fill:#355681;fill-opacity:1"
         id="path3923"
         inkscape:connector-curvature="0" />
      <path
         d="m 435.281,684.97936 c -0.25603,1.70668 -0.72536,3.22134 -1.408,4.544 -0.64003,1.32267 -1.53603,2.47467 -2.688,3.456 -1.10936,0.98133 -2.36802,1.70667 -3.776,2.176 -1.49335,0.42667 -3.00802,0.64 -4.544,0.64 l -2.56,0.064 c -1.96268,0 -3.75468,-0.32 -5.376,-0.96 -1.57868,-0.68267 -3.00801,-1.68533 -4.288,-3.008 -1.28,-1.36533 -2.24,-2.98666 -2.88,-4.864 -0.64,-1.87732 -0.96,-4.03199 -0.96,-6.464 0,-1.53598 0.128,-3.00798 0.384,-4.416 0.256,-1.45065 0.64,-2.77331 1.152,-3.968 0.512,-1.23731 1.152,-2.30397 1.92,-3.2 0.76799,-0.89597 1.74933,-1.64264 2.944,-2.24 l 1.536,-0.832 1.856,-0.576 1.664,-0.32 2.048,-0.128 2.56,0 c 1.57865,3e-5 3.00798,0.21336 4.288,0.64 1.27998,0.38403 2.47464,1.0027 3.584,1.856 0.98131,0.72536 1.85597,1.70669 2.624,2.944 0.63997,1.10936 1.1093,2.43202 1.408,3.968 l -4.864,0.704 -2.56,0 c -0.12802,-1.02398 -0.42669,-1.87731 -0.896,-2.56 -0.38402,-0.72531 -0.89602,-1.38664 -1.536,-1.984 l -1.536,-0.832 c -0.38402,-0.21331 -0.93868,-0.38397 -1.664,-0.512 -0.93868,0.12803 -1.81335,0.40536 -2.624,0.832 -0.76801,0.42669 -1.47201,1.02402 -2.112,1.792 -0.21335,0.21336 -0.49068,0.66136 -0.832,1.344 l -1.024,2.24 -0.448,2.304 -0.128,2.752 c -1e-5,1.83468 0.19199,3.47735 0.576,4.928 0.38399,1.40801 0.95999,2.60267 1.728,3.584 0.63999,0.76801 1.34399,1.40801 2.112,1.92 0.38399,0.17067 0.72532,0.32 1.024,0.448 0.34132,0.128 0.87465,0.27734 1.6,0.448 0.72532,-0.0853 1.34398,-0.256 1.856,-0.512 0.55465,-0.256 1.06665,-0.61866 1.536,-1.088 0.51198,-0.46933 1.02398,-1.17333 1.536,-2.112 0.21331,-0.46933 0.42664,-1.00266 0.64,-1.6 0.0853,-0.25599 0.29864,-0.93866 0.64,-2.048 l 2.56,0 4.928,0.64"
         style="fill:#355681;fill-opacity:1"
         id="path3925"
         inkscape:connector-curvature="0" />
    </g>
    <path
       sodipodi:type="arc"
       style="fill:#ffff00;fill-opacity:1;stroke:#000000;stroke-width:7.4000001;stroke-miterlimit:4;stroke-opacity:1;stroke-dasharray:none"
       id="path2985"
       sodipodi:cx="431.42856"
       sodipodi:cy="295.21933"
       sodipodi:rx="40"
       sodipodi:ry="40"
       d="m 471.42856,295.21933 c 0,22.09139 -17.90861,40 -40,40 -22.09139,0 -40,-17.90861 -40,-40 0,-22.09139 17.90861,-40 40,-40 22.09139,0 40,17.90861 40,40 z"
       transform="matrix(0.1510593,0,0,0.1510593,146.47186,607.95775)" />
    <path
       transform="matrix(0.14431558,0,0,0.14431558,149.00365,610.11047)"
       sodipodi:type="arc"
       style="fill:#ffff00;fill-opacity:1;stroke:#000000;stroke-width:0;stroke-miterlimit:4;stroke-opacity:1;stroke-dasharray:none"
       id="path2985-6"
       sodipodi:cx="431.42856"
       sodipodi:cy="295.21933"
       sodipodi:rx="40"
       sodipodi:ry="40"
       d="m 471.42856,295.21933 c 0,22.09139 -17.90861,40 -40,40 -22.09139,0 -40,-17.90861 -40,-40 0,-22.09139 17.90861,-40 40,-40 22.09139,0 40,17.90861 40,40 z" />
    <path
       style="fill:none;stroke:#000000;stroke-width:1.11783886;stroke-linecap:butt;stroke-linejoin:miter;stroke-miterlimit:4;stroke-opacity:1;stroke-dasharray:none"
       d="m 204.57574,655.84431 c 0.41033,1.67409 1.8839,3.38302 3.66859,3.66858"
       id="path3773"
       inkscape:connector-curvature="0"
       sodipodi:nodetypes="cc" />
    <path
       style="fill:none;stroke:#000000;stroke-width:1.11783886;stroke-linecap:butt;stroke-linejoin:miter;stroke-miterlimit:4;stroke-opacity:1;stroke-dasharray:none"
       d="m 203.38885,657.0312 c 0.41032,1.67409 1.8839,3.38302 3.66858,3.66859"
       id="path3773-9"
       inkscape:connector-curvature="0"
       sodipodi:nodetypes="cc" />
    <path
       style="fill:none;stroke:#000000;stroke-width:1.11783886;stroke-linecap:butt;stroke-linejoin:miter;stroke-miterlimit:4;stroke-opacity:1;stroke-dasharray:none"
       d="m 202.148,658.2181 c 0.41033,1.67408 1.8839,3.38302 3.66858,3.66858"
       id="path3773-6"
       inkscape:connector-curvature="0"
       sodipodi:nodetypes="cc" />
    <path
       sodipodi:type="arc"
       style="fill:#000000;fill-opacity:1;stroke:none"
       id="path3800"
       sodipodi:cx="302.67856"
       sodipodi:cy="248.61218"
       sodipodi:rx="2.3214285"
       sodipodi:ry="2.3214285"
       d="m 304.99999,248.61218 c 0,1.28209 -1.03934,2.32143 -2.32143,2.32143 -1.28209,0 -2.32143,-1.03934 -2.32143,-2.32143 0,-1.28209 1.03934,-2.32143 2.32143,-2.32143 1.28209,0 2.32143,1.03934 2.32143,2.32143 z"
       transform="matrix(0.26725877,0,0,0.26725877,121.49728,595.03827)" />
    <path
       style="fill:none;stroke:#b6acc4;stroke-width:4.30956602;stroke-linecap:butt;stroke-linejoin:miter;stroke-miterlimit:4;stroke-opacity:1;stroke-dasharray:none"
       d="m 397.25356,317.71932 c 10.04509,-8.26509 10.93625,-17.1945 15.78216,-25.89285 3.93156,7.97069 11.48935,14.82561 21.60714,20.89285 -7.96448,2.1553 -13.07551,2.71361 -24.10714,16.42858"
       id="path3814"
       inkscape:connector-curvature="0"
       sodipodi:nodetypes="cccc"
       transform="matrix(0.1510593,0,0,0.1510593,146.47186,607.95775)" />
    <path
       style="fill:none;stroke:#000000;stroke-width:0.49849567;stroke-linecap:round;stroke-linejoin:miter;stroke-miterlimit:4;stroke-opacity:1;stroke-dasharray:none"
       d="m 203.60465,645.80965 2.05009,1.67245"
       id="path3856"
       inkscape:connector-curvature="0" />
    <path
       style="fill:none;stroke:#000000;stroke-width:0.49849567;stroke-linecap:round;stroke-linejoin:miter;stroke-miterlimit:4;stroke-opacity:1;stroke-dasharray:none"
       d="m 219.27698,651.41883 2.64367,-0.1047"
       id="path3856-6"
       inkscape:connector-curvature="0" />
    <path
       style="fill:none;stroke:#000000;stroke-width:0.49849567;stroke-linecap:round;stroke-linejoin:miter;stroke-miterlimit:4;stroke-opacity:1;stroke-dasharray:none"
       d="m 209.04275,642.64154 0.66903,2.55975"
       id="path3856-8"
       inkscape:connector-curvature="0" />
    <path
       style="fill:none;stroke:#000000;stroke-width:0.49849567;stroke-linecap:round;stroke-linejoin:miter;stroke-miterlimit:4;stroke-opacity:1;stroke-dasharray:none"
       d="m 217.90133,656.78843 2.05009,1.67244"
       id="path3856-7"
       inkscape:connector-curvature="0" />
    <path
       style="fill:none;stroke:#000000;stroke-width:0.49849567;stroke-linecap:round;stroke-linejoin:miter;stroke-miterlimit:4;stroke-opacity:1;stroke-dasharray:none"
       d="m 217.39262,643.70276 -1.35637,2.2716"
       id="path3856-6-9"
       inkscape:connector-curvature="0" />
  </g>
</svg>
